ISO-10303-21;
HEADER;
FILE_DESCRIPTION (( 'STEP AP203' ),
    '1' );
FILE_NAME ('CUBESATPROJECT.STEP',
    '2026-08-08T18:19:45',
    ( '' ),
    ( '' ),
    'SwSTEP 2.0',
    'SolidWorks 2025',
    '' );
FILE_SCHEMA (( 'CONFIG_CONTROL_DESIGN' ));
ENDSEC;

DATA;
#1 = DIRECTION ( 'NONE',  ( 0.000000000000000000, 0.000000000000000000, 1.000000000000000000 ) ) ;
#2 = LINE ( 'NONE', #552, #757 ) ;
#3 = ORIENTED_EDGE ( 'NONE', *, *, #674, .T. ) ;
#4 = CARTESIAN_POINT ( 'NONE',  ( 35.00000000000000000, 18.00000000000000355, 35.00000000000000000 ) ) ;
#5 = EDGE_CURVE ( 'NONE', #67, #308, #558, .T. ) ;
#6 = CIRCLE ( 'NONE', #1016, 1.599999999999997202 ) ;
#7 = FACE_OUTER_BOUND ( 'NONE', #620, .T. ) ;
#8 = CARTESIAN_POINT ( 'NONE',  ( 0.000000000000000000, 100.0000000000000000, -50.00000000000000711 ) ) ;
#9 = EDGE_CURVE ( 'NONE', #19, #877, #1217, .T. ) ;
#10 = DIRECTION ( 'NONE',  ( 1.000000000000000000, -0.000000000000000000, 0.000000000000000000 ) ) ;
#11 = VERTEX_POINT ( 'NONE', #1124 ) ;
#12 = EDGE_CURVE ( 'NONE', #539, #487, #1162, .T. ) ;
#13 = EDGE_CURVE ( 'NONE', #188, #509, #1038, .T. ) ;
#14 = DIRECTION ( 'NONE',  ( -1.000000000000000000, 0.000000000000000000, 8.163404592832239069E-16 ) ) ;
#15 = AXIS2_PLACEMENT_3D ( 'NONE', #1098, #1194, #1004 ) ;
#16 = EDGE_CURVE ( 'NONE', #417, #396, #333, .T. ) ;
#17 = DIRECTION ( 'NONE',  ( -1.000000000000000000, 0.000000000000000000, 0.000000000000000000 ) ) ;
#18 = AXIS2_PLACEMENT_3D ( 'NONE', #1078, #140, #1191 ) ;
#19 = VERTEX_POINT ( 'NONE', #207 ) ;
#20 = ORIENTED_EDGE ( 'NONE', *, *, #674, .F. ) ;
#21 = CARTESIAN_POINT ( 'NONE',  ( 3.387812906025385771E-14, 100.0000000000000000, 41.50000000000008527 ) ) ;
#22 = ORIENTED_EDGE ( 'NONE', *, *, #803, .F. ) ;
#23 = DIRECTION ( 'NONE',  ( 0.000000000000000000, -1.000000000000000000, 0.000000000000000000 ) ) ;
#24 = ORIENTED_EDGE ( 'NONE', *, *, #1140, .F. ) ;
#25 = ORIENTED_EDGE ( 'NONE', *, *, #12, .F. ) ;
#26 = EDGE_CURVE ( 'NONE', #157, #1158, #1077, .T. ) ;
#27 = FACE_OUTER_BOUND ( 'NONE', #763, .T. ) ;
#28 = ORIENTED_EDGE ( 'NONE', *, *, #5, .T. ) ;
#29 = AXIS2_PLACEMENT_3D ( 'NONE', #54, #911, #430 ) ;
#30 = ADVANCED_FACE ( 'NONE', ( #957 ), #241, .F. ) ;
#31 = CIRCLE ( 'NONE', #733, 1.600000000000004086 ) ;
#32 = LINE ( 'NONE', #504, #84 ) ;
#33 = DIRECTION ( 'NONE',  ( 0.000000000000000000, 1.000000000000000000, -0.000000000000000000 ) ) ;
#34 = ORIENTED_EDGE ( 'NONE', *, *, #263, .F. ) ;
#35 = ORIENTED_EDGE ( 'NONE', *, *, #446, .F. ) ;
#36 = DIRECTION ( 'NONE',  ( 0.000000000000000000, 0.000000000000000000, -1.000000000000000000 ) ) ;
#37 = FACE_OUTER_BOUND ( 'NONE', #1164, .T. ) ;
#38 = DIRECTION ( 'NONE',  ( 0.000000000000000000, 0.000000000000000000, 1.000000000000000000 ) ) ;
#39 = ORIENTED_EDGE ( 'NONE', *, *, #116, .F. ) ;
#40 = DIRECTION ( 'NONE',  ( 0.000000000000000000, 0.000000000000000000, -1.000000000000000000 ) ) ;
#41 = EDGE_CURVE ( 'NONE', #19, #741, #32, .T. ) ;
#42 = ORIENTED_EDGE ( 'NONE', *, *, #766, .T. ) ;
#43 = VECTOR ( 'NONE', #792, 1000.000000000000000 ) ;
#44 = LINE ( 'NONE', #196, #992 ) ;
#45 = CARTESIAN_POINT ( 'NONE',  ( 39.99999999999999289, 18.00000000000000355, 40.00000000000000000 ) ) ;
#46 = ORIENTED_EDGE ( 'NONE', *, *, #754, .F. ) ;
#47 = EDGE_CURVE ( 'NONE', #622, #451, #414, .T. ) ;
#48 = DIRECTION ( 'NONE',  ( 0.000000000000000000, 0.000000000000000000, 1.000000000000000000 ) ) ;
#49 = ORIENTED_EDGE ( 'NONE', *, *, #847, .T. ) ;
#50 = AXIS2_PLACEMENT_3D ( 'NONE', #21, #954, #214 ) ;
#51 = PRODUCT_DEFINITION_FORMATION_WITH_SPECIFIED_SOURCE ( 'ANY', '', #1177, .NOT_KNOWN. ) ;
#52 = PLANE ( 'NONE',  #689 ) ;
#53 = VERTEX_POINT ( 'NONE', #484 ) ;
#54 = CARTESIAN_POINT ( 'NONE',  ( 34.99999999999997868, 18.00000000000000355, -35.00000000000002842 ) ) ;
#55 = EDGE_LOOP ( 'NONE', ( #462, #1148 ) ) ;
#56 = CARTESIAN_POINT ( 'NONE',  ( 39.99999999999999289, 18.00000000000000355, -40.00000000000000000 ) ) ;
#57 = FACE_OUTER_BOUND ( 'NONE', #678, .T. ) ;
#58 = DIRECTION ( 'NONE',  ( 0.000000000000000000, 0.000000000000000000, -1.000000000000000000 ) ) ;
#59 = VECTOR ( 'NONE', #369, 1000.000000000000000 ) ;
#60 = CARTESIAN_POINT ( 'NONE',  ( -48.49999999999999289, 100.0000000000000000, 4.054654871560245028E-15 ) ) ;
#61 = ORIENTED_EDGE ( 'NONE', *, *, #960, .T. ) ;
#62 = LINE ( 'NONE', #246, #298 ) ;
#63 = ORIENTED_EDGE ( 'NONE', *, *, #1087, .T. ) ;
#64 = CARTESIAN_POINT ( 'NONE',  ( -49.99999999999997868, 100.0000000000000000, -49.00000000000000711 ) ) ;
#65 = ORIENTED_EDGE ( 'NONE', *, *, #86, .F. ) ;
#66 = CARTESIAN_POINT ( 'NONE',  ( 41.50000000000022737, 0.000000000000000000, -0.000000000000000000 ) ) ;
#67 = VERTEX_POINT ( 'NONE', #583 ) ;
#68 = PLANE ( 'NONE',  #870 ) ;
#69 = VECTOR ( 'NONE', #782, 1000.000000000000000 ) ;
#70 = APPROVAL_ROLE ( '' ) ;
#71 = DIRECTION ( 'NONE',  ( 0.000000000000000000, 0.000000000000000000, 1.000000000000000000 ) ) ;
#72 = ORIENTED_EDGE ( 'NONE', *, *, #12, .T. ) ;
#73 = CARTESIAN_POINT ( 'NONE',  ( -48.99999999999997868, 100.0000000000000000, -50.00000000000000711 ) ) ;
#74 = LINE ( 'NONE', #914, #1035 ) ;
#75 = CARTESIAN_POINT ( 'NONE',  ( -41.50000000000001421, 0.000000000000000000, -48.50000000000000000 ) ) ;
#76 = DIRECTION ( 'NONE',  ( 0.000000000000000000, 0.000000000000000000, 1.000000000000000000 ) ) ;
#77 = ORIENTED_EDGE ( 'NONE', *, *, #444, .F. ) ;
#78 = CARTESIAN_POINT ( 'NONE',  ( 34.99999999999997868, 18.00000000000000355, -36.60000000000003695 ) ) ;
#79 = EDGE_CURVE ( 'NONE', #106, #157, #425, .T. ) ;
#80 = ORIENTED_EDGE ( 'NONE', *, *, #446, .T. ) ;
#81 = DIRECTION ( 'NONE',  ( 0.000000000000000000, 1.000000000000000000, 0.000000000000000000 ) ) ;
#82 = CALENDAR_DATE ( 2026, 8, 8 ) ;
#83 = LINE ( 'NONE', #932, #695 ) ;
#84 = VECTOR ( 'NONE', #610, 1000.000000000000000 ) ;
#85 = ORIENTED_EDGE ( 'NONE', *, *, #834, .T. ) ;
#86 = EDGE_CURVE ( 'NONE', #313, #969, #953, .T. ) ;
#87 = FACE_OUTER_BOUND ( 'NONE', #297, .T. ) ;
#88 = EDGE_LOOP ( 'NONE', ( #859, #1179 ) ) ;
#89 = DIRECTION ( 'NONE',  ( -0.000000000000000000, 1.000000000000000000, 0.000000000000000000 ) ) ;
#90 = AXIS2_PLACEMENT_3D ( 'NONE', #769, #1051, #774 ) ;
#91 = MECHANICAL_CONTEXT ( 'NONE', #950, 'mechanical' ) ;
#92 = VERTEX_POINT ( 'NONE', #98 ) ;
#93 = EDGE_CURVE ( 'NONE', #53, #561, #326, .T. ) ;
#94 = LINE ( 'NONE', #668, #548 ) ;
#95 = ORIENTED_EDGE ( 'NONE', *, *, #1024, .F. ) ;
#96 = ADVANCED_FACE ( 'NONE', ( #706 ), #806, .F. ) ;
#97 = DIRECTION ( 'NONE',  ( 0.000000000000000000, 0.000000000000000000, -1.000000000000000000 ) ) ;
#98 = CARTESIAN_POINT ( 'NONE',  ( 50.00000000000002132, 100.0000000000000000, -49.00000000000000711 ) ) ;
#99 = PLANE ( 'NONE',  #628 ) ;
#100 = EDGE_CURVE ( 'NONE', #313, #92, #601, .T. ) ;
#101 = VECTOR ( 'NONE', #418, 1000.000000000000000 ) ;
#102 = APPROVAL_STATUS ( 'not_yet_approved' ) ;
#103 = CARTESIAN_POINT ( 'NONE',  ( -40.00000000000000711, 18.00000000000000355, 40.00000000000000000 ) ) ;
#104 = CARTESIAN_POINT ( 'NONE',  ( 49.00000000000002132, 0.000000000000000000, 49.99999999999999289 ) ) ;
#105 = LINE ( 'NONE', #579, #787 ) ;
#106 = VERTEX_POINT ( 'NONE', #986 ) ;
#107 = VECTOR ( 'NONE', #148, 1000.000000000000000 ) ;
#108 = PLANE ( 'NONE',  #90 ) ;
#109 = CC_DESIGN_APPROVAL ( #560, ( #745 ) ) ;
#110 = ORIENTED_EDGE ( 'NONE', *, *, #581, .T. ) ;
#111 = AXIS2_PLACEMENT_3D ( 'NONE', #56, #929, #360 ) ;
#112 = EDGE_LOOP ( 'NONE', ( #1020, #489, #1129, #796 ) ) ;
#113 = CARTESIAN_POINT ( 'NONE',  ( -48.49999999999999289, 0.000000000000000000, 4.054654871560245028E-15 ) ) ;
#114 = FACE_OUTER_BOUND ( 'NONE', #959, .T. ) ;
#115 = VERTEX_POINT ( 'NONE', #1041 ) ;
#116 = EDGE_CURVE ( 'NONE', #877, #1195, #138, .T. ) ;
#117 = AXIS2_PLACEMENT_3D ( 'NONE', #550, #168, #288 ) ;
#118 = CARTESIAN_POINT ( 'NONE',  ( 48.50000000000002842, 100.0000000000000000, 41.50000000000004263 ) ) ;
#119 = ORIENTED_EDGE ( 'NONE', *, *, #931, .T. ) ;
#120 = EDGE_CURVE ( 'NONE', #287, #228, #673, .T. ) ;
#121 = ORIENTED_EDGE ( 'NONE', *, *, #665, .T. ) ;
#122 = AXIS2_PLACEMENT_3D ( 'NONE', #799, #860, #1166 ) ;
#123 = DIRECTION ( 'NONE',  ( 0.000000000000000000, -1.000000000000000000, 0.000000000000000000 ) ) ;
#124 = DIRECTION ( 'NONE',  ( 0.000000000000000000, 0.000000000000000000, 1.000000000000000000 ) ) ;
#125 = CARTESIAN_POINT ( 'NONE',  ( -41.50000000000001421, 100.0000000000000000, -48.50000000000000000 ) ) ;
#126 = ORIENTED_EDGE ( 'NONE', *, *, #47, .F. ) ;
#127 = EDGE_CURVE ( 'NONE', #919, #594, #667, .T. ) ;
#128 = VECTOR ( 'NONE', #40, 1000.000000000000000 ) ;
#129 = EDGE_LOOP ( 'NONE', ( #682, #977, #1100, #895 ) ) ;
#130 = CARTESIAN_POINT ( 'NONE',  ( 41.50000000000001421, 100.0000000000000000, -41.50000000000022027 ) ) ;
#131 = EDGE_CURVE ( 'NONE', #106, #515, #145, .T. ) ;
#132 = CARTESIAN_POINT ( 'NONE',  ( 35.00000000000000000, 20.00000000000000000, 35.00000000000000000 ) ) ;
#133 = DIRECTION ( 'NONE',  ( -0.000000000000000000, -1.000000000000000000, 0.000000000000000000 ) ) ;
#134 = ORIENTED_EDGE ( 'NONE', *, *, #491, .T. ) ;
#135 = CARTESIAN_POINT ( 'NONE',  ( -35.00000000000002842, 18.00000000000000355, -35.00000000000000000 ) ) ;
#136 = ORIENTED_EDGE ( 'NONE', *, *, #327, .T. ) ;
#137 = EDGE_CURVE ( 'NONE', #917, #724, #44, .T. ) ;
#138 = LINE ( 'NONE', #130, #377 ) ;
#139 = ADVANCED_FACE ( 'NONE', ( #478 ), #1045, .T. ) ;
#140 = DIRECTION ( 'NONE',  ( 0.000000000000000000, -1.000000000000000000, 0.000000000000000000 ) ) ;
#141 = CARTESIAN_POINT ( 'NONE',  ( 49.00000000000002132, 100.0000000000000000, -50.00000000000000711 ) ) ;
#142 = ORIENTED_EDGE ( 'NONE', *, *, #1103, .F. ) ;
#143 = CARTESIAN_POINT ( 'NONE',  ( -41.50000000000021316, 100.0000000000000000, 0.000000000000000000 ) ) ;
#144 = ORIENTED_EDGE ( 'NONE', *, *, #137, .T. ) ;
#145 = CIRCLE ( 'NONE', #122, 1.000000000000000888 ) ;
#146 = DIRECTION ( 'NONE',  ( 0.000000000000000000, -1.000000000000000000, 0.000000000000000000 ) ) ;
#147 = VERTEX_POINT ( 'NONE', #202 ) ;
#148 = DIRECTION ( 'NONE',  ( -0.000000000000000000, 1.000000000000000000, 0.000000000000000000 ) ) ;
#149 = VECTOR ( 'NONE', #372, 1000.000000000000000 ) ;
#150 = ORIENTED_EDGE ( 'NONE', *, *, #803, .T. ) ;
#151 = VECTOR ( 'NONE', #858, 1000.000000000000000 ) ;
#152 = FACE_OUTER_BOUND ( 'NONE', #159, .T. ) ;
#153 = CARTESIAN_POINT ( 'NONE',  ( -49.99999999999997868, 0.000000000000000000, -49.00000000000000711 ) ) ;
#154 = AXIS2_PLACEMENT_3D ( 'NONE', #248, #734, #1102 ) ;
#155 = DIRECTION ( 'NONE',  ( 0.000000000000000000, 0.000000000000000000, -1.000000000000000000 ) ) ;
#156 = LINE ( 'NONE', #60, #1065 ) ;
#157 = VERTEX_POINT ( 'NONE', #104 ) ;
#158 = DIRECTION ( 'NONE',  ( 0.000000000000000000, 0.000000000000000000, -1.000000000000000000 ) ) ;
#159 = EDGE_LOOP ( 'NONE', ( #997, #705, #1143, #591 ) ) ;
#160 = CARTESIAN_POINT ( 'NONE',  ( 41.50000000000022737, 100.0000000000000000, 41.50000000000004974 ) ) ;
#161 = CYLINDRICAL_SURFACE ( 'NONE', #154, 1.600000000000004086 ) ;
#162 = PERSON_AND_ORGANIZATION ( #885, #1117 ) ;
#163 = CARTESIAN_POINT ( 'NONE',  ( 0.000000000000000000, 100.0000000000000000, 49.99999999999999289 ) ) ;
#164 = EDGE_LOOP ( 'NONE', ( #390, #473, #535, #134 ) ) ;
#165 = CARTESIAN_POINT ( 'NONE',  ( 41.50000000000001421, 100.0000000000000000, 0.000000000000000000 ) ) ;
#166 = VERTEX_POINT ( 'NONE', #75 ) ;
#167 = ADVANCED_BREP_SHAPE_REPRESENTATION ( 'CUBESATPROJECT', ( #268, #276, #752 ), #925 ) ;
#168 = DIRECTION ( 'NONE',  ( -8.360113137237620037E-17, 0.000000000000000000, -1.000000000000000000 ) ) ;
#169 = CARTESIAN_POINT ( 'NONE',  ( 39.99999999999999289, 20.00000000000000000, 40.00000000000000000 ) ) ;
#170 = CALENDAR_DATE ( 2026, 8, 8 ) ;
#171 = DIRECTION ( 'NONE',  ( 0.000000000000000000, -1.000000000000000000, 0.000000000000000000 ) ) ;
#172 = CARTESIAN_POINT ( 'NONE',  ( -35.00000000000002842, 18.00000000000000355, -36.60000000000000853 ) ) ;
#173 = CARTESIAN_POINT ( 'NONE',  ( 0.000000000000000000, 20.00000000000000000, 0.000000000000000000 ) ) ;
#174 = AXIS2_PLACEMENT_3D ( 'NONE', #4, #391, #306 ) ;
#175 = PERSON_AND_ORGANIZATION_ROLE ( 'creator' ) ;
#176 = DIRECTION ( 'NONE',  ( 1.000000000000000000, -0.000000000000000000, 0.000000000000000000 ) ) ;
#177 = ORIENTED_EDGE ( 'NONE', *, *, #178, .F. ) ;
#178 = EDGE_CURVE ( 'NONE', #1158, #313, #651, .T. ) ;
#179 = CARTESIAN_POINT ( 'NONE',  ( -49.99999999999997868, 100.0000000000000000, 48.99999999999999289 ) ) ;
#180 = VECTOR ( 'NONE', #783, 1000.000000000000000 ) ;
#181 = ORIENTED_EDGE ( 'NONE', *, *, #1049, .T. ) ;
#182 = CARTESIAN_POINT ( 'NONE',  ( 35.00000000000000000, 20.00000000000000000, 36.60000000000000142 ) ) ;
#183 = EDGE_CURVE ( 'NONE', #1207, #503, #218, .T. ) ;
#184 = COORDINATED_UNIVERSAL_TIME_OFFSET ( 6, 0, .BEHIND. ) ;
#185 = CARTESIAN_POINT ( 'NONE',  ( 35.00000000000000000, 18.00000000000000355, 33.40000000000000568 ) ) ;
#186 = ORIENTED_EDGE ( 'NONE', *, *, #532, .F. ) ;
#187 = FACE_OUTER_BOUND ( 'NONE', #676, .T. ) ;
#188 = VERTEX_POINT ( 'NONE', #632 ) ;
#189 = DIRECTION ( 'NONE',  ( -0.000000000000000000, 1.000000000000000000, -0.000000000000000000 ) ) ;
#190 = ADVANCED_FACE ( 'NONE', ( #361 ), #161, .F. ) ;
#191 = FACE_OUTER_BOUND ( 'NONE', #1149, .T. ) ;
#192 = ORIENTED_EDGE ( 'NONE', *, *, #834, .F. ) ;
#193 = DIRECTION ( 'NONE',  ( 1.000000000000000000, 0.000000000000000000, 0.000000000000000000 ) ) ;
#194 = CIRCLE ( 'NONE', #527, 1.600000000000004086 ) ;
#195 = CARTESIAN_POINT ( 'NONE',  ( 34.99999999999997868, 18.00000000000000355, -33.40000000000002700 ) ) ;
#196 = CARTESIAN_POINT ( 'NONE',  ( 3.387812906025385771E-14, 100.0000000000000000, 41.50000000000008527 ) ) ;
#197 = EDGE_CURVE ( 'NONE', #732, #11, #453, .T. ) ;
#198 = DIRECTION ( 'NONE',  ( 1.000000000000000000, 0.000000000000000000, -8.360113137237620037E-17 ) ) ;
#199 = VECTOR ( 'NONE', #1109, 1000.000000000000000 ) ;
#200 = ORIENTED_EDGE ( 'NONE', *, *, #454, .T. ) ;
#201 = DIRECTION ( 'NONE',  ( 0.000000000000000000, 0.000000000000000000, 1.000000000000000000 ) ) ;
#202 = CARTESIAN_POINT ( 'NONE',  ( -41.50000000000001421, 0.000000000000000000, -41.50000000000022027 ) ) ;
#203 = CARTESIAN_POINT ( 'NONE',  ( 39.99999999999999289, 18.00000000000000355, 40.00000000000000000 ) ) ;
#204 = EDGE_LOOP ( 'NONE', ( #303, #253, #476, #20 ) ) ;
#205 = ORIENTED_EDGE ( 'NONE', *, *, #120, .F. ) ;
#206 = AXIS2_PLACEMENT_3D ( 'NONE', #365, #271, #641 ) ;
#207 = CARTESIAN_POINT ( 'NONE',  ( 41.50000000000001421, 100.0000000000000000, -48.50000000000000000 ) ) ;
#208 = DIRECTION ( 'NONE',  ( 0.000000000000000000, 0.000000000000000000, -1.000000000000000000 ) ) ;
#209 = PLANE ( 'NONE',  #292 ) ;
#210 = ORIENTED_EDGE ( 'NONE', *, *, #455, .F. ) ;
#211 = ORIENTED_EDGE ( 'NONE', *, *, #127, .F. ) ;
#212 = CC_DESIGN_PERSON_AND_ORGANIZATION_ASSIGNMENT ( #1036, #936, ( #980 ) ) ;
#213 = AXIS2_PLACEMENT_3D ( 'NONE', #1118, #367, #1021 ) ;
#214 = DIRECTION ( 'NONE',  ( 1.000000000000000000, 0.000000000000000000, -8.163404592832240055E-16 ) ) ;
#215 = DIRECTION ( 'NONE',  ( 0.000000000000000000, 0.000000000000000000, 1.000000000000000000 ) ) ;
#216 = LOCAL_TIME ( 13, 19, 45.00000000000000000, #1205 ) ;
#217 = VERTEX_POINT ( 'NONE', #169 ) ;
#218 = CIRCLE ( 'NONE', #1220, 1.600000000000004086 ) ;
#219 = VECTOR ( 'NONE', #278, 1000.000000000000000 ) ;
#220 = EDGE_CURVE ( 'NONE', #407, #874, #1204, .T. ) ;
#221 = CARTESIAN_POINT ( 'NONE',  ( 39.99999999999999289, 18.00000000000000355, -40.00000000000000000 ) ) ;
#222 = DIRECTION ( 'NONE',  ( -0.000000000000000000, -1.000000000000000000, -0.000000000000000000 ) ) ;
#223 = ORIENTED_EDGE ( 'NONE', *, *, #978, .T. ) ;
#224 = EDGE_LOOP ( 'NONE', ( #302, #39, #600, #1119 ) ) ;
#225 = EDGE_CURVE ( 'NONE', #928, #821, #1183, .T. ) ;
#226 = LINE ( 'NONE', #1141, #750 ) ;
#227 = CARTESIAN_POINT ( 'NONE',  ( 34.99999999999997868, 18.00000000000000355, -35.00000000000002842 ) ) ;
#228 = VERTEX_POINT ( 'NONE', #153 ) ;
#229 = ADVANCED_FACE ( 'NONE', ( #57 ), #1196, .F. ) ;
#230 = DIRECTION ( 'NONE',  ( 0.000000000000000000, 0.000000000000000000, -1.000000000000000000 ) ) ;
#231 = EDGE_CURVE ( 'NONE', #1048, #407, #555, .T. ) ;
#232 = LINE ( 'NONE', #262, #946 ) ;
#233 = CARTESIAN_POINT ( 'NONE',  ( 49.00000000000002132, 0.000000000000000000, -49.00000000000000711 ) ) ;
#234 = EDGE_LOOP ( 'NONE', ( #22, #586, #245, #973 ) ) ;
#235 = CIRCLE ( 'NONE', #29, 1.600000000000004086 ) ;
#236 = ADVANCED_FACE ( 'NONE', ( #380 ), #536, .F. ) ;
#238 = FACE_BOUND ( 'NONE', #332, .T. ) ;
#237 = VECTOR ( 'NONE', #639, 1000.000000000000000 ) ;
#239 = ORIENTED_EDGE ( 'NONE', *, *, #41, .F. ) ;
#240 = EDGE_CURVE ( 'NONE', #741, #1195, #738, .T. ) ;
#241 = CYLINDRICAL_SURFACE ( 'NONE', #312, 1.600000000000004086 ) ;
#242 = AXIS2_PLACEMENT_3D ( 'NONE', #775, #598, #681 ) ;
#243 = CARTESIAN_POINT ( 'NONE',  ( 0.000000000000000000, 100.0000000000000000, 49.99999999999999289 ) ) ;
#244 = CARTESIAN_POINT ( 'NONE',  ( -49.99999999999997868, 100.0000000000000000, 0.000000000000000000 ) ) ;
#245 = ORIENTED_EDGE ( 'NONE', *, *, #759, .T. ) ;
#246 = CARTESIAN_POINT ( 'NONE',  ( 4.054654871560246605E-15, 100.0000000000000000, 48.50000000000001421 ) ) ;
#247 = ORIENTED_EDGE ( 'NONE', *, *, #47, .T. ) ;
#248 = CARTESIAN_POINT ( 'NONE',  ( -35.00000000000002842, 18.00000000000000355, -35.00000000000000000 ) ) ;
#249 = DIRECTION ( 'NONE',  ( -1.000000000000000000, 0.000000000000000000, 0.000000000000000000 ) ) ;
#250 = LINE ( 'NONE', #244, #856 ) ;
#251 = ORIENTED_EDGE ( 'NONE', *, *, #525, .T. ) ;
#252 = LINE ( 'NONE', #351, #486 ) ;
#253 = ORIENTED_EDGE ( 'NONE', *, *, #1015, .T. ) ;
#254 = DIRECTION ( 'NONE',  ( 1.000000000000000000, 0.000000000000000000, -8.360113137237620037E-17 ) ) ;
#255 = DIRECTION ( 'NONE',  ( 0.000000000000000000, 0.000000000000000000, 1.000000000000000000 ) ) ;
#256 = ORIENTED_EDGE ( 'NONE', *, *, #131, .F. ) ;
#257 = ADVANCED_FACE ( 'NONE', ( #1006, #657, #152, #1014, #460 ), #68, .T. ) ;
#258 = CARTESIAN_POINT ( 'NONE',  ( 35.00000000000000000, 18.00000000000000355, 36.60000000000000142 ) ) ;
#259 = ORIENTED_EDGE ( 'NONE', *, *, #690, .F. ) ;
#260 = AXIS2_PLACEMENT_3D ( 'NONE', #982, #524, #889 ) ;
#261 = DIRECTION ( 'NONE',  ( -1.000000000000000000, 0.000000000000000000, 0.000000000000000000 ) ) ;
#262 = CARTESIAN_POINT ( 'NONE',  ( 3.387812906025373780E-14, 100.0000000000000000, 41.49999999999993605 ) ) ;
#263 = EDGE_CURVE ( 'NONE', #724, #396, #1108, .T. ) ;
#264 = CARTESIAN_POINT ( 'NONE',  ( -35.00000000000001421, 20.00000000000000000, 35.00000000000000000 ) ) ;
#265 = VERTEX_POINT ( 'NONE', #1023 ) ;
#266 = PLANE ( 'NONE',  #979 ) ;
#267 = VERTEX_POINT ( 'NONE', #182 ) ;
#268 = MANIFOLD_SOLID_BREP ( 'Fillet1', #857 ) ;
#269 = CARTESIAN_POINT ( 'NONE',  ( 48.50000000000002842, 100.0000000000000000, -41.50000000000022027 ) ) ;
#270 = APPROVAL_STATUS ( 'not_yet_approved' ) ;
#271 = DIRECTION ( 'NONE',  ( -0.000000000000000000, -1.000000000000000000, 0.000000000000000000 ) ) ;
#272 = ORIENTED_EDGE ( 'NONE', *, *, #658, .F. ) ;
#273 = FACE_OUTER_BOUND ( 'NONE', #164, .T. ) ;
#274 = VECTOR ( 'NONE', #846, 1000.000000000000000 ) ;
#275 = DIRECTION ( 'NONE',  ( 0.000000000000000000, -0.000000000000000000, 1.000000000000000000 ) ) ;
#276 = MANIFOLD_SOLID_BREP ( 'Boss-Extrude3', #419 ) ;
#277 = ADVANCED_FACE ( 'NONE', ( #439 ), #1101, .F. ) ;
#278 = DIRECTION ( 'NONE',  ( -0.000000000000000000, -1.000000000000000000, -0.000000000000000000 ) ) ;
#279 = ORIENTED_EDGE ( 'NONE', *, *, #220, .F. ) ;
#280 = CARTESIAN_POINT ( 'NONE',  ( -48.99999999999997868, 0.000000000000000000, -50.00000000000000711 ) ) ;
#281 = VECTOR ( 'NONE', #1202, 1000.000000000000000 ) ;
#282 = EDGE_CURVE ( 'NONE', #409, #106, #74, .T. ) ;
#283 = LOCAL_TIME ( 13, 19, 45.00000000000000000, #875 ) ;
#284 = DIRECTION ( 'NONE',  ( 0.000000000000000000, 0.000000000000000000, 1.000000000000000000 ) ) ;
#285 = EDGE_LOOP ( 'NONE', ( #427, #642, #654, #699 ) ) ;
#286 = CARTESIAN_POINT ( 'NONE',  ( -48.50000000000000000, 100.0000000000000000, -41.50000000000022027 ) ) ;
#287 = VERTEX_POINT ( 'NONE', #64 ) ;
#288 = DIRECTION ( 'NONE',  ( -1.000000000000000000, 0.000000000000000000, 8.360113137237620037E-17 ) ) ;
#289 = DATE_AND_TIME ( #851, #492 ) ;
#290 = ORIENTED_EDGE ( 'NONE', *, *, #931, .F. ) ;
#291 = CARTESIAN_POINT ( 'NONE',  ( -35.00000000000002842, 18.00000000000000355, -33.39999999999999858 ) ) ;
#292 = AXIS2_PLACEMENT_3D ( 'NONE', #1192, #619, #538 ) ;
#293 = DATE_AND_TIME ( #844, #772 ) ;
#294 = LINE ( 'NONE', #466, #219 ) ;
#295 = EDGE_LOOP ( 'NONE', ( #192, #1013, #947, #142 ) ) ;
#296 = DIRECTION ( 'NONE',  ( -1.000000000000000000, 0.000000000000000000, 0.000000000000000000 ) ) ;
#297 = EDGE_LOOP ( 'NONE', ( #647, #126, #443, #136 ) ) ;
#298 = VECTOR ( 'NONE', #449, 1000.000000000000000 ) ;
#299 = FACE_OUTER_BOUND ( 'NONE', #508, .T. ) ;
#300 = DIRECTION ( 'NONE',  ( 0.000000000000000000, 0.000000000000000000, 1.000000000000000000 ) ) ;
#301 = DIRECTION ( 'NONE',  ( 0.000000000000000000, 0.000000000000000000, 1.000000000000000000 ) ) ;
#302 = ORIENTED_EDGE ( 'NONE', *, *, #240, .T. ) ;
#303 = ORIENTED_EDGE ( 'NONE', *, *, #881, .F. ) ;
#304 = CALENDAR_DATE ( 2026, 8, 8 ) ;
#305 = CARTESIAN_POINT ( 'NONE',  ( 50.00000000000002132, 100.0000000000000000, 0.000000000000000000 ) ) ;
#306 = DIRECTION ( 'NONE',  ( 0.000000000000000000, 0.000000000000000000, 1.000000000000000000 ) ) ;
#307 = CARTESIAN_POINT ( 'NONE',  ( -41.50000000000001421, 100.0000000000000000, -41.50000000000022027 ) ) ;
#308 = VERTEX_POINT ( 'NONE', #753 ) ;
#309 = EDGE_LOOP ( 'NONE', ( #656, #85, #817, #404 ) ) ;
#310 = EDGE_CURVE ( 'NONE', #417, #11, #1120, .T. ) ;
#311 = CARTESIAN_POINT ( 'NONE',  ( -48.99999999999997868, 100.0000000000000000, 48.99999999999999289 ) ) ;
#312 = AXIS2_PLACEMENT_3D ( 'NONE', #1139, #880, #300 ) ;
#313 = VERTEX_POINT ( 'NONE', #637 ) ;
#314 = ADVANCED_FACE ( 'NONE', ( #376 ), #445, .T. ) ;
#315 = AXIS2_PLACEMENT_3D ( 'NONE', #937, #1037, #284 ) ;
#316 = CIRCLE ( 'NONE', #999, 1.599999999999997202 ) ;
#317 = LINE ( 'NONE', #1063, #1215 ) ;
#318 = CARTESIAN_POINT ( 'NONE',  ( 41.50000000000022737, 0.000000000000000000, 41.50000000000004974 ) ) ;
#319 = ORIENTED_EDGE ( 'NONE', *, *, #1040, .F. ) ;
#320 = VECTOR ( 'NONE', #998, 1000.000000000000000 ) ;
#321 = EDGE_LOOP ( 'NONE', ( #339, #988, #712, #205 ) ) ;
#322 = EDGE_CURVE ( 'NONE', #594, #53, #835, .T. ) ;
#323 = CARTESIAN_POINT ( 'NONE',  ( 39.99999999999999289, 20.00000000000000000, 40.00000000000000000 ) ) ;
#324 = EDGE_CURVE ( 'NONE', #115, #217, #1190, .T. ) ;
#325 = ORIENTED_EDGE ( 'NONE', *, *, #488, .F. ) ;
#326 = LINE ( 'NONE', #701, #422 ) ;
#327 = EDGE_CURVE ( 'NONE', #401, #1186, #725, .T. ) ;
#328 = DIRECTION ( 'NONE',  ( 0.000000000000000000, 0.000000000000000000, 1.000000000000000000 ) ) ;
#329 = CARTESIAN_POINT ( 'NONE',  ( -48.99999999999997868, 100.0000000000000000, -50.00000000000000711 ) ) ;
#330 = ORIENTED_EDGE ( 'NONE', *, *, #565, .F. ) ;
#331 = FACE_OUTER_BOUND ( 'NONE', #890, .T. ) ;
#332 = EDGE_LOOP ( 'NONE', ( #25, #399 ) ) ;
#333 = LINE ( 'NONE', #773, #700 ) ;
#334 = FACE_BOUND ( 'NONE', #1212, .T. ) ;
#335 = ORIENTED_EDGE ( 'NONE', *, *, #873, .T. ) ;
#336 = VECTOR ( 'NONE', #680, 1000.000000000000000 ) ;
#338 = DIRECTION ( 'NONE',  ( 0.000000000000000000, 0.000000000000000000, 1.000000000000000000 ) ) ;
#337 = VECTOR ( 'NONE', #1167, 1000.000000000000000 ) ;
#339 = ORIENTED_EDGE ( 'NONE', *, *, #1087, .F. ) ;
#340 = CARTESIAN_POINT ( 'NONE',  ( -35.00000000000002842, 20.00000000000000000, -35.00000000000000000 ) ) ;
#341 = DIRECTION ( 'NONE',  ( -0.000000000000000000, 1.000000000000000000, 0.000000000000000000 ) ) ;
#342 = DIRECTION ( 'NONE',  ( 0.000000000000000000, 0.000000000000000000, -1.000000000000000000 ) ) ;
#343 = ORIENTED_EDGE ( 'NONE', *, *, #677, .T. ) ;
#344 = DIRECTION ( 'NONE',  ( -0.000000000000000000, -1.000000000000000000, -0.000000000000000000 ) ) ;
#345 = ORIENTED_EDGE ( 'NONE', *, *, #1024, .T. ) ;
#346 = DIRECTION ( 'NONE',  ( 0.000000000000000000, 0.000000000000000000, 1.000000000000000000 ) ) ;
#347 = AXIS2_PLACEMENT_3D ( 'NONE', #464, #261, #1209 ) ;
#348 = APPROVAL ( #1114, 'UNSPECIFIED' ) ;
#349 = DIRECTION ( 'NONE',  ( -0.000000000000000000, 1.000000000000000000, 0.000000000000000000 ) ) ;
#350 = EDGE_LOOP ( 'NONE', ( #72, #181, #798, #1110 ) ) ;
#351 = CARTESIAN_POINT ( 'NONE',  ( 39.99999999999999289, 18.00000000000000355, 40.00000000000000000 ) ) ;
#352 = EDGE_LOOP ( 'NONE', ( #785, #985, #523, #720, #1089, #802, #110, #694 ) ) ;
#353 = DIRECTION ( 'NONE',  ( -0.000000000000000000, -0.000000000000000000, 1.000000000000000000 ) ) ;
#354 = ADVANCED_FACE ( 'NONE', ( #590 ), #698, .F. ) ;
#355 = FACE_BOUND ( 'NONE', #1003, .T. ) ;
#356 = ORIENTED_EDGE ( 'NONE', *, *, #220, .T. ) ;
#357 = CARTESIAN_POINT ( 'NONE',  ( -41.50000000000021316, 100.0000000000000000, 41.49999999999996447 ) ) ;
#358 = ORIENTED_EDGE ( 'NONE', *, *, #746, .F. ) ;
#359 = VECTOR ( 'NONE', #1213, 1000.000000000000000 ) ;
#360 = DIRECTION ( 'NONE',  ( 1.000000000000000000, 0.000000000000000000, -0.000000000000000000 ) ) ;
#361 = FACE_OUTER_BOUND ( 'NONE', #112, .T. ) ;
#362 = EDGE_CURVE ( 'NONE', #830, #884, #499, .T. ) ;
#363 = CIRCLE ( 'NONE', #206, 1.000000000000000888 ) ;
#364 =( LENGTH_UNIT ( ) NAMED_UNIT ( * ) SI_UNIT ( .MILLI., .METRE. ) );
#365 = CARTESIAN_POINT ( 'NONE',  ( 49.00000000000002132, 0.000000000000000000, 48.99999999999999289 ) ) ;
#366 = DIRECTION ( 'NONE',  ( 0.000000000000000000, 0.000000000000000000, 1.000000000000000000 ) ) ;
#367 = DIRECTION ( 'NONE',  ( 0.000000000000000000, 1.000000000000000000, 0.000000000000000000 ) ) ;
#368 = ADVANCED_FACE ( 'NONE', ( #114 ), #867, .F. ) ;
#369 = DIRECTION ( 'NONE',  ( -0.000000000000000000, -1.000000000000000000, -0.000000000000000000 ) ) ;
#370 = CARTESIAN_POINT ( 'NONE',  ( 0.000000000000000000, 100.0000000000000000, -41.50000000000022027 ) ) ;
#371 = ADVANCED_FACE ( 'NONE', ( #941 ), #1151, .T. ) ;
#372 = DIRECTION ( 'NONE',  ( 0.000000000000000000, -1.000000000000000000, 0.000000000000000000 ) ) ;
#373 = EDGE_LOOP ( 'NONE', ( #177, #599, #1084, #65 ) ) ;
#374 = DIRECTION ( 'NONE',  ( 0.000000000000000000, 0.000000000000000000, 1.000000000000000000 ) ) ;
#375 = EDGE_CURVE ( 'NONE', #166, #741, #1147, .T. ) ;
#376 = FACE_OUTER_BOUND ( 'NONE', #234, .T. ) ;
#377 = VECTOR ( 'NONE', #510, 1000.000000000000000 ) ;
#378 = ORIENTED_EDGE ( 'NONE', *, *, #448, .T. ) ;
#379 = PLANE ( 'NONE',  #213 ) ;
#380 = FACE_OUTER_BOUND ( 'NONE', #564, .T. ) ;
#381 = CIRCLE ( 'NONE', #899, 1.599999999999997202 ) ;
#382 = CC_DESIGN_APPROVAL ( #348, ( #51 ) ) ;
#383 = AXIS2_PLACEMENT_3D ( 'NONE', #8, #394, #768 ) ;
#384 = APPROVAL_DATE_TIME ( #289, #560 ) ;
#385 = ORIENTED_EDGE ( 'NONE', *, *, #231, .F. ) ;
#386 = PLANE ( 'NONE',  #708 ) ;
#387 = AXIS2_PLACEMENT_3D ( 'NONE', #233, #133, #38 ) ;
#388 = PERSON_AND_ORGANIZATION_ROLE ( 'creator' ) ;
#389 = CARTESIAN_POINT ( 'NONE',  ( 34.99999999999997868, 18.00000000000000355, -35.00000000000002842 ) ) ;
#390 = ORIENTED_EDGE ( 'NONE', *, *, #477, .F. ) ;
#391 = DIRECTION ( 'NONE',  ( -0.000000000000000000, 1.000000000000000000, 0.000000000000000000 ) ) ;
#392 = VECTOR ( 'NONE', #888, 1000.000000000000000 ) ;
#393 = CARTESIAN_POINT ( 'NONE',  ( -49.99999999999997868, 100.0000000000000000, 0.000000000000000000 ) ) ;
#394 = DIRECTION ( 'NONE',  ( 0.000000000000000000, 0.000000000000000000, -1.000000000000000000 ) ) ;
#395 = LINE ( 'NONE', #691, #336 ) ;
#396 = VERTEX_POINT ( 'NONE', #318 ) ;
#397 = CARTESIAN_POINT ( 'NONE',  ( -35.00000000000001421, 18.00000000000000355, 36.60000000000000142 ) ) ;
#398 = LINE ( 'NONE', #113, #649 ) ;
#399 = ORIENTED_EDGE ( 'NONE', *, *, #713, .F. ) ;
#400 = VECTOR ( 'NONE', #222, 1000.000000000000000 ) ;
#401 = VERTEX_POINT ( 'NONE', #692 ) ;
#402 = EDGE_CURVE ( 'NONE', #1048, #166, #1064, .T. ) ;
#403 = DIRECTION ( 'NONE',  ( 0.000000000000000000, 0.000000000000000000, 1.000000000000000000 ) ) ;
#404 = ORIENTED_EDGE ( 'NONE', *, *, #573, .F. ) ;
#405 = ADVANCED_FACE ( 'NONE', ( #593 ), #972, .F. ) ;
#406 = LINE ( 'NONE', #788, #69 ) ;
#407 = VERTEX_POINT ( 'NONE', #307 ) ;
#408 = ADVANCED_FACE ( 'NONE', ( #1052 ), #209, .F. ) ;
#409 = VERTEX_POINT ( 'NONE', #1200 ) ;
#410 = AXIS2_PLACEMENT_3D ( 'NONE', #804, #344, #338 ) ;
#411 = DIRECTION ( 'NONE',  ( -0.000000000000000000, -1.000000000000000000, -0.000000000000000000 ) ) ;
#412 = ORIENTED_EDGE ( 'NONE', *, *, #1040, .T. ) ;
#413 = VERTEX_POINT ( 'NONE', #605 ) ;
#414 = LINE ( 'NONE', #516, #43 ) ;
#415 = CARTESIAN_POINT ( 'NONE',  ( 41.50000000000001421, 0.000000000000000000, -41.50000000000022027 ) ) ;
#416 = VERTEX_POINT ( 'NONE', #519 ) ;
#417 = VERTEX_POINT ( 'NONE', #909 ) ;
#418 = DIRECTION ( 'NONE',  ( -0.000000000000000000, 1.000000000000000000, -0.000000000000000000 ) ) ;
#419 = CLOSED_SHELL ( 'NONE', ( #354, #229, #1182, #913, #786, #257, #368, #236, #1138, #96, #405, #190, #970, #30 ) ) ;
#420 = DIRECTION ( 'NONE',  ( -1.000000000000000000, 0.000000000000000000, -0.000000000000000000 ) ) ;
#421 = ORIENTED_EDGE ( 'NONE', *, *, #873, .F. ) ;
#422 = VECTOR ( 'NONE', #855, 1000.000000000000000 ) ;
#423 = FACE_BOUND ( 'NONE', #963, .T. ) ;
#424 = ORIENTED_EDGE ( 'NONE', *, *, #800, .T. ) ;
#425 = LINE ( 'NONE', #578, #1165 ) ;
#426 = FACE_OUTER_BOUND ( 'NONE', #864, .T. ) ;
#427 = ORIENTED_EDGE ( 'NONE', *, *, #887, .T. ) ;
#428 = CIRCLE ( 'NONE', #410, 1.599999999999997202 ) ;
#430 = DIRECTION ( 'NONE',  ( 0.000000000000000000, 0.000000000000000000, -1.000000000000000000 ) ) ;
#429 = CC_DESIGN_SECURITY_CLASSIFICATION ( #980, ( #51 ) ) ;
#431 = ORIENTED_EDGE ( 'NONE', *, *, #137, .F. ) ;
#432 = CC_DESIGN_PERSON_AND_ORGANIZATION_ASSIGNMENT ( #1199, #388, ( #745 ) ) ;
#433 = CARTESIAN_POINT ( 'NONE',  ( -4.054654871560245028E-15, 100.0000000000000000, -48.49999999999999289 ) ) ;
#434 = PLANE ( 'NONE',  #764 ) ;
#435 = EDGE_LOOP ( 'NONE', ( #520, #290, #211, #823 ) ) ;
#436 = CARTESIAN_POINT ( 'NONE',  ( 0.000000000000000000, 100.0000000000000000, -41.50000000000022027 ) ) ;
#437 = ORIENTED_EDGE ( 'NONE', *, *, #842, .T. ) ;
#438 = ADVANCED_FACE ( 'NONE', ( #1168 ), #434, .F. ) ;
#439 = FACE_OUTER_BOUND ( 'NONE', #1067, .T. ) ;
#440 = DIRECTION ( 'NONE',  ( 0.000000000000000000, -1.000000000000000000, 0.000000000000000000 ) ) ;
#441 = ORIENTED_EDGE ( 'NONE', *, *, #324, .T. ) ;
#442 = LINE ( 'NONE', #143, #1198 ) ;
#443 = ORIENTED_EDGE ( 'NONE', *, *, #670, .T. ) ;
#444 = EDGE_CURVE ( 'NONE', #1027, #287, #250, .T. ) ;
#445 = PLANE ( 'NONE',  #117 ) ;
#446 = EDGE_CURVE ( 'NONE', #509, #265, #6, .T. ) ;
#447 = ORIENTED_EDGE ( 'NONE', *, *, #1056, .F. ) ;
#448 = EDGE_CURVE ( 'NONE', #969, #729, #1071, .T. ) ;
#449 = DIRECTION ( 'NONE',  ( 1.000000000000000000, 0.000000000000000000, -8.360113137237620037E-17 ) ) ;
#450 = AXIS2_PLACEMENT_3D ( 'NONE', #589, #584, #301 ) ;
#451 = VERTEX_POINT ( 'NONE', #512 ) ;
#452 = VECTOR ( 'NONE', #249, 1000.000000000000000 ) ;
#453 = LINE ( 'NONE', #269, #493 ) ;
#454 = EDGE_CURVE ( 'NONE', #874, #67, #156, .T. ) ;
#455 = EDGE_CURVE ( 'NONE', #413, #729, #1223, .T. ) ;
#456 = DATE_AND_TIME ( #170, #900 ) ;
#457 = DIRECTION ( 'NONE',  ( -1.000000000000000000, 0.000000000000000000, -0.000000000000000000 ) ) ;
#458 = VERTEX_POINT ( 'NONE', #141 ) ;
#459 = LINE ( 'NONE', #1125, #879 ) ;
#460 = FACE_BOUND ( 'NONE', #1011, .T. ) ;
#461 = DIRECTION ( 'NONE',  ( 0.000000000000000000, 0.000000000000000000, 1.000000000000000000 ) ) ;
#462 = ORIENTED_EDGE ( 'NONE', *, *, #842, .F. ) ;
#463 = DIRECTION ( 'NONE',  ( -0.000000000000000000, 1.000000000000000000, 0.000000000000000000 ) ) ;
#464 = CARTESIAN_POINT ( 'NONE',  ( 50.00000000000002132, 100.0000000000000000, 0.000000000000000000 ) ) ;
#465 = COORDINATED_UNIVERSAL_TIME_OFFSET ( 6, 0, .BEHIND. ) ;
#466 = CARTESIAN_POINT ( 'NONE',  ( -41.50000000000001421, 100.0000000000000000, -41.50000000000022027 ) ) ;
#467 = CARTESIAN_POINT ( 'NONE',  ( 49.00000000000002132, 100.0000000000000000, 48.99999999999999289 ) ) ;
#468 = DIRECTION ( 'NONE',  ( -8.360113137237620037E-17, 0.000000000000000000, -1.000000000000000000 ) ) ;
#469 = CC_DESIGN_PERSON_AND_ORGANIZATION_ASSIGNMENT ( #1026, #175, ( #51 ) ) ;
#470 = VECTOR ( 'NONE', #349, 1000.000000000000000 ) ;
#471 = VECTOR ( 'NONE', #1092, 1000.000000000000000 ) ;
#472 = DIRECTION ( 'NONE',  ( 0.000000000000000000, 0.000000000000000000, 1.000000000000000000 ) ) ;
#473 = ORIENTED_EDGE ( 'NONE', *, *, #402, .F. ) ;
#474 = PRODUCT_RELATED_PRODUCT_CATEGORY ( 'detail', '', ( #1177 ) ) ;
#475 = FACE_BOUND ( 'NONE', #933, .T. ) ;
#476 = ORIENTED_EDGE ( 'NONE', *, *, #13, .T. ) ;
#477 = EDGE_CURVE ( 'NONE', #166, #147, #83, .T. ) ;
#478 = FACE_OUTER_BOUND ( 'NONE', #892, .T. ) ;
#479 = CARTESIAN_POINT ( 'NONE',  ( 35.00000000000000000, 18.00000000000000355, 33.40000000000000568 ) ) ;
#480 = ORIENTED_EDGE ( 'NONE', *, *, #575, .F. ) ;
#481 = VECTOR ( 'NONE', #366, 1000.000000000000000 ) ;
#482 = VECTOR ( 'NONE', #176, 1000.000000000000000 ) ;
#483 = CARTESIAN_POINT ( 'NONE',  ( -48.99999999999997868, 0.000000000000000000, -49.00000000000000711 ) ) ;
#484 = CARTESIAN_POINT ( 'NONE',  ( -40.00000000000000711, 18.00000000000000355, -40.00000000000000000 ) ) ;
#485 = FACE_OUTER_BOUND ( 'NONE', #703, .T. ) ;
#486 = VECTOR ( 'NONE', #996, 1000.000000000000000 ) ;
#487 = VERTEX_POINT ( 'NONE', #185 ) ;
#488 = EDGE_CURVE ( 'NONE', #1047, #919, #2, .T. ) ;
#489 = ORIENTED_EDGE ( 'NONE', *, *, #532, .T. ) ;
#490 = CIRCLE ( 'NONE', #1095, 1.600000000000004086 ) ;
#491 = EDGE_CURVE ( 'NONE', #407, #147, #294, .T. ) ;
#492 = LOCAL_TIME ( 13, 19, 45.00000000000000000, #1216 ) ;
#493 = VECTOR ( 'NONE', #991, 1000.000000000000000 ) ;
#494 = ADVANCED_FACE ( 'NONE', ( #666 ), #831, .F. ) ;
#495 = DIRECTION ( 'NONE',  ( 0.000000000000000000, -1.000000000000000000, 0.000000000000000000 ) ) ;
#496 = ORIENTED_EDGE ( 'NONE', *, *, #120, .T. ) ;
#497 = APPROVAL_DATE_TIME ( #1154, #781 ) ;
#498 = FACE_OUTER_BOUND ( 'NONE', #204, .T. ) ;
#499 = LINE ( 'NONE', #329, #609 ) ;
#500 = EDGE_LOOP ( 'NONE', ( #1033, #421, #256, #974 ) ) ;
#501 = FACE_OUTER_BOUND ( 'NONE', #500, .T. ) ;
#502 = ORIENTED_EDGE ( 'NONE', *, *, #477, .T. ) ;
#503 = VERTEX_POINT ( 'NONE', #838 ) ;
#504 = CARTESIAN_POINT ( 'NONE',  ( 41.50000000000001421, 100.0000000000000000, -48.50000000000000000 ) ) ;
#505 = VECTOR ( 'NONE', #829, 1000.000000000000000 ) ;
#506 = FACE_OUTER_BOUND ( 'NONE', #940, .T. ) ;
#507 = CARTESIAN_POINT ( 'NONE',  ( 35.00000000000000000, 18.00000000000000355, 35.00000000000000000 ) ) ;
#508 = EDGE_LOOP ( 'NONE', ( #1059, #784, #634, #247 ) ) ;
#509 = VERTEX_POINT ( 'NONE', #557 ) ;
#510 = DIRECTION ( 'NONE',  ( -0.000000000000000000, -1.000000000000000000, -0.000000000000000000 ) ) ;
#511 = CARTESIAN_POINT ( 'NONE',  ( -35.00000000000002842, 18.00000000000000355, -33.39999999999999858 ) ) ;
#512 = CARTESIAN_POINT ( 'NONE',  ( -41.50000000000021316, 0.000000000000000000, 41.49999999999996447 ) ) ;
#513 = ORIENTED_EDGE ( 'NONE', *, *, #1140, .T. ) ;
#514 = CARTESIAN_POINT ( 'NONE',  ( 48.50000000000002842, 100.0000000000000000, -41.50000000000022027 ) ) ;
#515 = VERTEX_POINT ( 'NONE', #1206 ) ;
#516 = CARTESIAN_POINT ( 'NONE',  ( -41.50000000000021316, 100.0000000000000000, 41.49999999999996447 ) ) ;
#517 = CIRCLE ( 'NONE', #837, 1.000000000000000888 ) ;
#518 = CARTESIAN_POINT ( 'NONE',  ( -35.00000000000001421, 18.00000000000000355, 33.40000000000000568 ) ) ;
#519 = CARTESIAN_POINT ( 'NONE',  ( -48.50000000000000000, 0.000000000000000000, -41.50000000000022027 ) ) ;
#520 = ORIENTED_EDGE ( 'NONE', *, *, #966, .T. ) ;
#521 = CC_DESIGN_DATE_AND_TIME_ASSIGNMENT ( #456, #761, ( #745 ) ) ;
#522 = LINE ( 'NONE', #258, #1043 ) ;
#523 = ORIENTED_EDGE ( 'NONE', *, *, #79, .F. ) ;
#524 = DIRECTION ( 'NONE',  ( 0.000000000000000000, 1.000000000000000000, -0.000000000000000000 ) ) ;
#525 = EDGE_CURVE ( 'NONE', #458, #413, #1123, .T. ) ;
#526 = ORIENTED_EDGE ( 'NONE', *, *, #1056, .T. ) ;
#527 = AXIS2_PLACEMENT_3D ( 'NONE', #1073, #984, #48 ) ;
#528 = DIRECTION ( 'NONE',  ( 1.000000000000000000, -0.000000000000000000, 0.000000000000000000 ) ) ;
#529 = ORIENTED_EDGE ( 'NONE', *, *, #623, .T. ) ;
#530 = DIRECTION ( 'NONE',  ( 0.000000000000000000, 0.000000000000000000, -1.000000000000000000 ) ) ;
#531 = CARTESIAN_POINT ( 'NONE',  ( 0.000000000000000000, 0.000000000000000000, 0.000000000000000000 ) ) ;
#532 = EDGE_CURVE ( 'NONE', #812, #810, #961, .T. ) ;
#533 = VERTEX_POINT ( 'NONE', #653 ) ;
#534 = CARTESIAN_POINT ( 'NONE',  ( 50.00000000000002132, 0.000000000000000000, -49.00000000000000711 ) ) ;
#535 = ORIENTED_EDGE ( 'NONE', *, *, #231, .T. ) ;
#536 = PLANE ( 'NONE',  #111 ) ;
#537 = CARTESIAN_POINT ( 'NONE',  ( -41.50000000000021316, 0.000000000000000000, 0.000000000000000000 ) ) ;
#538 = DIRECTION ( 'NONE',  ( 0.000000000000000000, 0.000000000000000000, -1.000000000000000000 ) ) ;
#539 = VERTEX_POINT ( 'NONE', #1032 ) ;
#540 = DIRECTION ( 'NONE',  ( 1.000000000000000000, 0.000000000000000000, 0.000000000000000000 ) ) ;
#541 = ORIENTED_EDGE ( 'NONE', *, *, #759, .F. ) ;
#542 = ADVANCED_FACE ( 'NONE', ( #191 ), #563, .T. ) ;
#543 = CARTESIAN_POINT ( 'NONE',  ( -40.00000000000000711, 18.00000000000000355, 40.00000000000000000 ) ) ;
#544 = DIRECTION ( 'NONE',  ( 1.000000000000000000, 0.000000000000000000, 0.000000000000000000 ) ) ;
#545 = CARTESIAN_POINT ( 'NONE',  ( 0.000000000000000000, 0.000000000000000000, -50.00000000000000711 ) ) ;
#546 = VERTEX_POINT ( 'NONE', #762 ) ;
#547 = CARTESIAN_POINT ( 'NONE',  ( -35.00000000000001421, 18.00000000000000355, 33.40000000000000568 ) ) ;
#548 = VECTOR ( 'NONE', #742, 1000.000000000000000 ) ;
#549 = APPROVAL_PERSON_ORGANIZATION ( #1104, #348, #70 ) ;
#550 = CARTESIAN_POINT ( 'NONE',  ( 4.054654871560246605E-15, 100.0000000000000000, 48.50000000000001421 ) ) ;
#551 = DIRECTION ( 'NONE',  ( 0.000000000000000000, 1.000000000000000000, -0.000000000000000000 ) ) ;
#552 = CARTESIAN_POINT ( 'NONE',  ( 39.99999999999999289, 18.00000000000000355, 40.00000000000000000 ) ) ;
#553 = ORIENTED_EDGE ( 'NONE', *, *, #240, .F. ) ;
#554 = PLANE ( 'NONE',  #771 ) ;
#555 = LINE ( 'NONE', #631, #471 ) ;
#556 = SECURITY_CLASSIFICATION_LEVEL ( 'unclassified' ) ;
#557 = CARTESIAN_POINT ( 'NONE',  ( -35.00000000000001421, 20.00000000000000000, 36.60000000000000142 ) ) ;
#558 = LINE ( 'NONE', #938, #274 ) ;
#559 = DIRECTION ( 'NONE',  ( -0.000000000000000000, 1.000000000000000000, 0.000000000000000000 ) ) ;
#560 = APPROVAL ( #270, 'UNSPECIFIED' ) ;
#561 = VERTEX_POINT ( 'NONE', #740 ) ;
#562 = DIRECTION ( 'NONE',  ( 0.000000000000000000, 0.000000000000000000, -1.000000000000000000 ) ) ;
#563 = CYLINDRICAL_SURFACE ( 'NONE', #570, 1.000000000000000888 ) ;
#564 = EDGE_LOOP ( 'NONE', ( #1079, #596, #95, #1137 ) ) ;
#565 = EDGE_CURVE ( 'NONE', #779, #904, #31, .T. ) ;
#566 = CYLINDRICAL_SURFACE ( 'NONE', #174, 1.599999999999997202 ) ;
#567 = ORIENTED_EDGE ( 'NONE', *, *, #100, .T. ) ;
#568 = VECTOR ( 'NONE', #528, 1000.000000000000000 ) ;
#569 = CIRCLE ( 'NONE', #1075, 1.599999999999997202 ) ;
#570 = AXIS2_PLACEMENT_3D ( 'NONE', #1105, #943, #472 ) ;
#571 = LINE ( 'NONE', #854, #882 ) ;
#572 = CARTESIAN_POINT ( 'NONE',  ( 50.00000000000002132, 100.0000000000000000, 48.99999999999999289 ) ) ;
#573 = EDGE_CURVE ( 'NONE', #779, #533, #1128, .T. ) ;
#574 = CARTESIAN_POINT ( 'NONE',  ( -35.00000000000001421, 18.00000000000000355, 35.00000000000000000 ) ) ;
#575 = EDGE_CURVE ( 'NONE', #874, #416, #571, .T. ) ;
#576 = EDGE_CURVE ( 'NONE', #969, #157, #363, .T. ) ;
#577 = PLANE ( 'NONE',  #1145 ) ;
#578 = CARTESIAN_POINT ( 'NONE',  ( 0.000000000000000000, 0.000000000000000000, 49.99999999999999289 ) ) ;
#579 = CARTESIAN_POINT ( 'NONE',  ( -40.00000000000000711, 20.00000000000000000, 40.00000000000000000 ) ) ;
#580 = ORIENTED_EDGE ( 'NONE', *, *, #1017, .T. ) ;
#581 = EDGE_CURVE ( 'NONE', #830, #413, #1019, .T. ) ;
#582 = EDGE_CURVE ( 'NONE', #228, #830, #517, .T. ) ;
#583 = CARTESIAN_POINT ( 'NONE',  ( -48.50000000000000000, 100.0000000000000000, 41.49999999999997158 ) ) ;
#584 = DIRECTION ( 'NONE',  ( -0.000000000000000000, 1.000000000000000000, 0.000000000000000000 ) ) ;
#585 = ORIENTED_EDGE ( 'NONE', *, *, #1001, .F. ) ;
#586 = ORIENTED_EDGE ( 'NONE', *, *, #327, .F. ) ;
#587 = VECTOR ( 'NONE', #663, 1000.000000000000000 ) ;
#588 = AXIS2_PLACEMENT_3D ( 'NONE', #920, #1203, #824 ) ;
#589 = CARTESIAN_POINT ( 'NONE',  ( -35.00000000000001421, 18.00000000000000355, 35.00000000000000000 ) ) ;
#590 = FACE_OUTER_BOUND ( 'NONE', #309, .T. ) ;
#591 = ORIENTED_EDGE ( 'NONE', *, *, #1126, .F. ) ;
#592 = CYLINDRICAL_SURFACE ( 'NONE', #688, 1.000000000000000888 ) ;
#593 = FACE_OUTER_BOUND ( 'NONE', #687, .T. ) ;
#594 = VERTEX_POINT ( 'NONE', #103 ) ;
#595 = VECTOR ( 'NONE', #530, 1000.000000000000000 ) ;
#596 = ORIENTED_EDGE ( 'NONE', *, *, #677, .F. ) ;
#597 = CARTESIAN_POINT ( 'NONE',  ( -41.50000000000001421, 100.0000000000000000, -48.50000000000000000 ) ) ;
#598 = DIRECTION ( 'NONE',  ( 0.000000000000000000, -1.000000000000000000, 0.000000000000000000 ) ) ;
#599 = ORIENTED_EDGE ( 'NONE', *, *, #26, .F. ) ;
#600 = ORIENTED_EDGE ( 'NONE', *, *, #9, .F. ) ;
#601 = LINE ( 'NONE', #305, #743 ) ;
#602 = AXIS2_PLACEMENT_3D ( 'NONE', #675, #495, #1058 ) ;
#603 = AXIS2_PLACEMENT_3D ( 'NONE', #819, #33, #124 ) ;
#604 = CARTESIAN_POINT ( 'NONE',  ( 0.000000000000000000, 0.000000000000000000, -41.50000000000022027 ) ) ;
#605 = CARTESIAN_POINT ( 'NONE',  ( 49.00000000000002132, 0.000000000000000000, -50.00000000000000711 ) ) ;
#606 = ORIENTED_EDGE ( 'NONE', *, *, #16, .T. ) ;
#607 = LINE ( 'NONE', #436, #568 ) ;
#608 = ORIENTED_EDGE ( 'NONE', *, *, #887, .F. ) ;
#609 = VECTOR ( 'NONE', #189, 1000.000000000000000 ) ;
#610 = DIRECTION ( 'NONE',  ( -0.000000000000000000, -1.000000000000000000, -0.000000000000000000 ) ) ;
#611 = ADVANCED_FACE ( 'NONE', ( #7 ), #577, .T. ) ;
#612 = CARTESIAN_POINT ( 'NONE',  ( -48.99999999999997868, 100.0000000000000000, -49.00000000000000711 ) ) ;
#613 = VERTEX_POINT ( 'NONE', #952 ) ;
#614 = DIRECTION ( 'NONE',  ( -0.000000000000000000, 1.000000000000000000, 0.000000000000000000 ) ) ;
#615 = ORIENTED_EDGE ( 'NONE', *, *, #26, .T. ) ;
#616 = VECTOR ( 'NONE', #353, 1000.000000000000000 ) ;
#617 = ADVANCED_FACE ( 'NONE', ( #299 ), #672, .T. ) ;
#618 = DIRECTION ( 'NONE',  ( -0.000000000000000000, 0.000000000000000000, 1.000000000000000000 ) ) ;
#619 = DIRECTION ( 'NONE',  ( 1.000000000000000000, 0.000000000000000000, 0.000000000000000000 ) ) ;
#620 = EDGE_LOOP ( 'NONE', ( #46, #335, #983, #496 ) ) ;
#621 = FACE_OUTER_BOUND ( 'NONE', #224, .T. ) ;
#622 = VERTEX_POINT ( 'NONE', #357 ) ;
#623 = EDGE_CURVE ( 'NONE', #877, #732, #607, .T. ) ;
#624 = CIRCLE ( 'NONE', #671, 1.600000000000004086 ) ;
#625 = PLANE ( 'NONE',  #603 ) ;
#626 = CARTESIAN_POINT ( 'NONE',  ( 50.00000000000002132, 0.000000000000000000, 0.000000000000000000 ) ) ;
#627 = ORIENTED_EDGE ( 'NONE', *, *, #375, .F. ) ;
#628 = AXIS2_PLACEMENT_3D ( 'NONE', #840, #468, #749 ) ;
#629 = DIRECTION ( 'NONE',  ( 0.000000000000000000, 0.000000000000000000, 1.000000000000000000 ) ) ;
#630 = ORIENTED_EDGE ( 'NONE', *, *, #1103, .T. ) ;
#631 = CARTESIAN_POINT ( 'NONE',  ( -41.50000000000001421, 100.0000000000000000, 0.000000000000000000 ) ) ;
#632 = CARTESIAN_POINT ( 'NONE',  ( -35.00000000000001421, 18.00000000000000355, 36.60000000000000142 ) ) ;
#633 = CARTESIAN_POINT ( 'NONE',  ( 39.99999999999999289, 20.00000000000000000, -40.00000000000000000 ) ) ;
#634 = ORIENTED_EDGE ( 'NONE', *, *, #1094, .T. ) ;
#635 = DIRECTION ( 'NONE',  ( -8.163404592832240055E-16, 0.000000000000000000, -1.000000000000000000 ) ) ;
#636 = ORIENTED_EDGE ( 'NONE', *, *, #13, .F. ) ;
#637 = CARTESIAN_POINT ( 'NONE',  ( 50.00000000000002132, 100.0000000000000000, 48.99999999999999289 ) ) ;
#638 = AXIS2_PLACEMENT_3D ( 'NONE', #507, #89, #1142 ) ;
#639 = DIRECTION ( 'NONE',  ( 0.000000000000000000, 0.000000000000000000, 1.000000000000000000 ) ) ;
#640 = AXIS2_PLACEMENT_3D ( 'NONE', #736, #171, #662 ) ;
#641 = DIRECTION ( 'NONE',  ( 0.000000000000000000, 0.000000000000000000, 1.000000000000000000 ) ) ;
#642 = ORIENTED_EDGE ( 'NONE', *, *, #197, .F. ) ;
#643 = LINE ( 'NONE', #547, #962 ) ;
#644 = CARTESIAN_POINT ( 'NONE',  ( 48.50000000000002842, 0.000000000000000000, 0.000000000000000000 ) ) ;
#645 = APPROVAL_DATE_TIME ( #660, #348 ) ;
#646 = DIRECTION ( 'NONE',  ( 0.000000000000000000, -1.000000000000000000, 0.000000000000000000 ) ) ;
#647 = ORIENTED_EDGE ( 'NONE', *, *, #1197, .F. ) ;
#648 = LINE ( 'NONE', #1042, #281 ) ;
#649 = VECTOR ( 'NONE', #697, 1000.000000000000000 ) ;
#650 = AXIS2_PLACEMENT_3D ( 'NONE', #755, #551, #76 ) ;
#651 = CIRCLE ( 'NONE', #1062, 1.000000000000000888 ) ;
#652 = EDGE_CURVE ( 'NONE', #919, #217, #252, .T. ) ;
#653 = CARTESIAN_POINT ( 'NONE',  ( 34.99999999999997868, 20.00000000000000000, -33.40000000000002700 ) ) ;
#654 = ORIENTED_EDGE ( 'NONE', *, *, #623, .F. ) ;
#655 = DIRECTION ( 'NONE',  ( 0.000000000000000000, 0.000000000000000000, -1.000000000000000000 ) ) ;
#656 = ORIENTED_EDGE ( 'NONE', *, *, #565, .T. ) ;
#657 = FACE_BOUND ( 'NONE', #88, .T. ) ;
#658 = EDGE_CURVE ( 'NONE', #810, #812, #624, .T. ) ;
#659 = VECTOR ( 'NONE', #818, 1000.000000000000000 ) ;
#660 = DATE_AND_TIME ( #82, #216 ) ;
#661 = CARTESIAN_POINT ( 'NONE',  ( 49.00000000000002132, 0.000000000000000000, -50.00000000000000711 ) ) ;
#662 = DIRECTION ( 'NONE',  ( 0.000000000000000000, 0.000000000000000000, -1.000000000000000000 ) ) ;
#663 = DIRECTION ( 'NONE',  ( 1.000000000000000000, -0.000000000000000000, 0.000000000000000000 ) ) ;
#664 = AXIS2_PLACEMENT_3D ( 'NONE', #1069, #230, #1050 ) ;
#665 = EDGE_CURVE ( 'NONE', #812, #503, #816, .T. ) ;
#666 = FACE_OUTER_BOUND ( 'NONE', #285, .T. ) ;
#667 = LINE ( 'NONE', #893, #1211 ) ;
#668 = CARTESIAN_POINT ( 'NONE',  ( 50.00000000000002132, 100.0000000000000000, -49.00000000000000711 ) ) ;
#669 = ORIENTED_EDGE ( 'NONE', *, *, #690, .T. ) ;
#670 = EDGE_CURVE ( 'NONE', #622, #401, #442, .T. ) ;
#671 = AXIS2_PLACEMENT_3D ( 'NONE', #135, #704, #629 ) ;
#672 = PLANE ( 'NONE',  #1093 ) ;
#673 = LINE ( 'NONE', #1174, #1055 ) ;
#674 = EDGE_CURVE ( 'NONE', #265, #509, #428, .T. ) ;
#675 = CARTESIAN_POINT ( 'NONE',  ( 35.00000000000000000, 20.00000000000000000, 35.00000000000000000 ) ) ;
#676 = EDGE_LOOP ( 'NONE', ( #924, #239, #447, #1171 ) ) ;
#677 = EDGE_CURVE ( 'NONE', #1047, #115, #731, .T. ) ;
#678 = EDGE_LOOP ( 'NONE', ( #437, #1072, #35, #636 ) ) ;
#679 = DIRECTION ( 'NONE',  ( -1.000000000000000000, 0.000000000000000000, 0.000000000000000000 ) ) ;
#680 = DIRECTION ( 'NONE',  ( -0.000000000000000000, -1.000000000000000000, -0.000000000000000000 ) ) ;
#681 = DIRECTION ( 'NONE',  ( 0.000000000000000000, 0.000000000000000000, -1.000000000000000000 ) ) ;
#682 = ORIENTED_EDGE ( 'NONE', *, *, #746, .T. ) ;
#683 = EDGE_LOOP ( 'NONE', ( #886, #1201, #580, #1112 ) ) ;
#684 = VECTOR ( 'NONE', #123, 1000.000000000000000 ) ;
#685 = DIRECTION ( 'NONE',  ( 0.000000000000000000, 1.000000000000000000, 0.000000000000000000 ) ) ;
#686 = DIRECTION ( 'NONE',  ( 1.000000000000000000, 0.000000000000000000, 0.000000000000000000 ) ) ;
#687 = EDGE_LOOP ( 'NONE', ( #862, #776, #42, #585 ) ) ;
#688 = AXIS2_PLACEMENT_3D ( 'NONE', #311, #685, #967 ) ;
#689 = AXIS2_PLACEMENT_3D ( 'NONE', #721, #1088, #883 ) ;
#690 = EDGE_CURVE ( 'NONE', #92, #458, #1113, .T. ) ;
#691 = CARTESIAN_POINT ( 'NONE',  ( 48.50000000000002842, 100.0000000000000000, 41.50000000000004263 ) ) ;
#692 = CARTESIAN_POINT ( 'NONE',  ( -41.50000000000021316, 100.0000000000000000, 48.50000000000001421 ) ) ;
#693 = ORIENTED_EDGE ( 'NONE', *, *, #658, .T. ) ;
#694 = ORIENTED_EDGE ( 'NONE', *, *, #455, .T. ) ;
#695 = VECTOR ( 'NONE', #71, 1000.000000000000000 ) ;
#696 = EDGE_CURVE ( 'NONE', #503, #1207, #194, .T. ) ;
#697 = DIRECTION ( 'NONE',  ( 8.360113137237620037E-17, 0.000000000000000000, 1.000000000000000000 ) ) ;
#698 = CYLINDRICAL_SURFACE ( 'NONE', #1178, 1.600000000000004086 ) ;
#699 = ORIENTED_EDGE ( 'NONE', *, *, #116, .T. ) ;
#700 = VECTOR ( 'NONE', #1133, 1000.000000000000000 ) ;
#701 = CARTESIAN_POINT ( 'NONE',  ( -40.00000000000000711, 18.00000000000000355, -40.00000000000000000 ) ) ;
#702 = LINE ( 'NONE', #243, #337 ) ;
#703 = EDGE_LOOP ( 'NONE', ( #805, #480, #200, #28 ) ) ;
#704 = DIRECTION ( 'NONE',  ( -0.000000000000000000, -1.000000000000000000, -0.000000000000000000 ) ) ;
#705 = ORIENTED_EDGE ( 'NONE', *, *, #966, .F. ) ;
#706 = FACE_OUTER_BOUND ( 'NONE', #435, .T. ) ;
#707 = ADVANCED_FACE ( 'NONE', ( #621 ), #266, .F. ) ;
#708 = AXIS2_PLACEMENT_3D ( 'NONE', #1029, #296, #374 ) ;
#709 = AXIS2_PLACEMENT_3D ( 'NONE', #45, #420, #618 ) ;
#710 = DIRECTION ( 'NONE',  ( 1.000000000000000000, 0.000000000000000000, -8.163404592832239069E-16 ) ) ;
#711 = DIRECTION ( 'NONE',  ( -1.000000000000000000, 0.000000000000000000, -0.000000000000000000 ) ) ;
#712 = ORIENTED_EDGE ( 'NONE', *, *, #582, .F. ) ;
#713 = EDGE_CURVE ( 'NONE', #487, #539, #569, .T. ) ;
#714 = LINE ( 'NONE', #66, #730 ) ;
#715 = ORIENTED_EDGE ( 'NONE', *, *, #178, .T. ) ;
#716 = EDGE_CURVE ( 'NONE', #904, #779, #235, .T. ) ;
#717 = DIRECTION ( 'NONE',  ( 1.000000000000000000, -0.000000000000000000, -0.000000000000000000 ) ) ;
#718 = ORIENTED_EDGE ( 'NONE', *, *, #322, .F. ) ;
#719 = DIRECTION ( 'NONE',  ( -0.000000000000000000, 1.000000000000000000, 0.000000000000000000 ) ) ;
#720 = ORIENTED_EDGE ( 'NONE', *, *, #131, .T. ) ;
#721 = CARTESIAN_POINT ( 'NONE',  ( 0.000000000000000000, 100.0000000000000000, -41.50000000000022027 ) ) ;
#722 = ORIENTED_EDGE ( 'NONE', *, *, #575, .T. ) ;
#723 = CARTESIAN_POINT ( 'NONE',  ( 41.50000000000001421, 0.000000000000000000, -48.50000000000000000 ) ) ;
#724 = VERTEX_POINT ( 'NONE', #918 ) ;
#725 = LINE ( 'NONE', #794, #180 ) ;
#726 = DIRECTION ( 'NONE',  ( -0.000000000000000000, -1.000000000000000000, -0.000000000000000000 ) ) ;
#727 = CYLINDRICAL_SURFACE ( 'NONE', #1218, 1.000000000000000888 ) ;
#728 = DIRECTION ( 'NONE',  ( 0.000000000000000000, 0.000000000000000000, -1.000000000000000000 ) ) ;
#729 = VERTEX_POINT ( 'NONE', #534 ) ;
#730 = VECTOR ( 'NONE', #811, 1000.000000000000000 ) ;
#731 = LINE ( 'NONE', #1085, #107 ) ;
#732 = VERTEX_POINT ( 'NONE', #514 ) ;
#733 = AXIS2_PLACEMENT_3D ( 'NONE', #389, #646, #97 ) ;
#734 = DIRECTION ( 'NONE',  ( -0.000000000000000000, 1.000000000000000000, 0.000000000000000000 ) ) ;
#735 = CARTESIAN_POINT ( 'NONE',  ( -35.00000000000002842, 20.00000000000000000, -33.39999999999999858 ) ) ;
#736 = CARTESIAN_POINT ( 'NONE',  ( 35.00000000000000000, 18.00000000000000355, 35.00000000000000000 ) ) ;
#737 = CARTESIAN_POINT ( 'NONE',  ( 41.50000000000022737, 0.000000000000000000, 48.50000000000001421 ) ) ;
#738 = LINE ( 'NONE', #906, #935 ) ;
#739 = APPROVAL_ROLE ( '' ) ;
#740 = CARTESIAN_POINT ( 'NONE',  ( -40.00000000000000711, 20.00000000000000000, -40.00000000000000000 ) ) ;
#741 = VERTEX_POINT ( 'NONE', #723 ) ;
#742 = DIRECTION ( 'NONE',  ( -0.000000000000000000, 1.000000000000000000, -0.000000000000000000 ) ) ;
#743 = VECTOR ( 'NONE', #36, 1000.000000000000000 ) ;
#744 = CARTESIAN_POINT ( 'NONE',  ( 39.99999999999999289, 20.00000000000000000, 40.00000000000000000 ) ) ;
#745 = PRODUCT_DEFINITION ( 'UNKNOWN', '', #51, #760 ) ;
#746 = EDGE_CURVE ( 'NONE', #396, #821, #714, .T. ) ;
#747 = PERSON_AND_ORGANIZATION_ROLE ( 'design_owner' ) ;
#748 = ORIENTED_EDGE ( 'NONE', *, *, #1099, .F. ) ;
#749 = DIRECTION ( 'NONE',  ( -1.000000000000000000, 0.000000000000000000, 8.360113137237620037E-17 ) ) ;
#750 = VECTOR ( 'NONE', #871, 1000.000000000000000 ) ;
#751 = ORIENTED_EDGE ( 'NONE', *, *, #282, .T. ) ;
#752 = AXIS2_PLACEMENT_3D ( 'NONE', #942, #1, #544 ) ;
#753 = CARTESIAN_POINT ( 'NONE',  ( -48.50000000000000000, 0.000000000000000000, 41.49999999999997158 ) ) ;
#754 = EDGE_CURVE ( 'NONE', #515, #228, #891, .T. ) ;
#755 = CARTESIAN_POINT ( 'NONE',  ( -48.99999999999997868, 100.0000000000000000, 48.99999999999999289 ) ) ;
#756 = CARTESIAN_POINT ( 'NONE',  ( 41.50000000000001421, 100.0000000000000000, 0.000000000000000000 ) ) ;
#757 = VECTOR ( 'NONE', #1115, 1000.000000000000000 ) ;
#758 = FACE_OUTER_BOUND ( 'NONE', #350, .T. ) ;
#759 = EDGE_CURVE ( 'NONE', #401, #928, #62, .T. ) ;
#760 = DESIGN_CONTEXT ( 'detailed design', #1131, 'design' ) ;
#761 = DATE_TIME_ROLE ( 'creation_date' ) ;
#762 = CARTESIAN_POINT ( 'NONE',  ( -40.00000000000000711, 20.00000000000000000, 40.00000000000000000 ) ) ;
#763 = EDGE_LOOP ( 'NONE', ( #606, #34, #431, #1086 ) ) ;
#764 = AXIS2_PLACEMENT_3D ( 'NONE', #163, #342, #711 ) ;
#765 = CARTESIAN_POINT ( 'NONE',  ( 41.50000000000022737, 100.0000000000000000, 0.000000000000000000 ) ) ;
#766 = EDGE_CURVE ( 'NONE', #539, #267, #522, .T. ) ;
#767 = DIRECTION ( 'NONE',  ( -1.000000000000000000, 0.000000000000000000, 0.000000000000000000 ) ) ;
#768 = DIRECTION ( 'NONE',  ( -1.000000000000000000, 0.000000000000000000, -0.000000000000000000 ) ) ;
#769 = CARTESIAN_POINT ( 'NONE',  ( -48.49999999999999289, 100.0000000000000000, 4.054654871560245028E-15 ) ) ;
#770 = ORIENTED_EDGE ( 'NONE', *, *, #1082, .F. ) ;
#771 = AXIS2_PLACEMENT_3D ( 'NONE', #934, #193, #655 ) ;
#772 = LOCAL_TIME ( 13, 19, 45.00000000000000000, #465 ) ;
#773 = CARTESIAN_POINT ( 'NONE',  ( 3.387812906025385771E-14, 0.000000000000000000, 41.50000000000008527 ) ) ;
#774 = DIRECTION ( 'NONE',  ( -8.360113137237620037E-17, 0.000000000000000000, -1.000000000000000000 ) ) ;
#775 = CARTESIAN_POINT ( 'NONE',  ( 49.00000000000002132, 100.0000000000000000, 48.99999999999999289 ) ) ;
#776 = ORIENTED_EDGE ( 'NONE', *, *, #713, .T. ) ;
#777 = ORIENTED_EDGE ( 'NONE', *, *, #797, .T. ) ;
#778 = LINE ( 'NONE', #1155, #1025 ) ;
#779 = VERTEX_POINT ( 'NONE', #822 ) ;
#780 = VERTEX_POINT ( 'NONE', #1163 ) ;
#781 = APPROVAL ( #102, 'UNSPECIFIED' ) ;
#782 = DIRECTION ( 'NONE',  ( 1.000000000000000000, -0.000000000000000000, -0.000000000000000000 ) ) ;
#783 = DIRECTION ( 'NONE',  ( -0.000000000000000000, -1.000000000000000000, -0.000000000000000000 ) ) ;
#784 = ORIENTED_EDGE ( 'NONE', *, *, #5, .F. ) ;
#785 = ORIENTED_EDGE ( 'NONE', *, *, #448, .F. ) ;
#786 = ADVANCED_FACE ( 'NONE', ( #331, #238, #423, #1170, #475 ), #379, .F. ) ;
#787 = VECTOR ( 'NONE', #861, 1000.000000000000000 ) ;
#788 = CARTESIAN_POINT ( 'NONE',  ( 39.99999999999999289, 18.00000000000000355, -40.00000000000000000 ) ) ;
#789 = CARTESIAN_POINT ( 'NONE',  ( -40.00000000000000711, 18.00000000000000355, 40.00000000000000000 ) ) ;
#790 = ORIENTED_EDGE ( 'NONE', *, *, #183, .T. ) ;
#791 = ADVANCED_FACE ( 'NONE', ( #187 ), #99, .F. ) ;
#792 = DIRECTION ( 'NONE',  ( -0.000000000000000000, -1.000000000000000000, -0.000000000000000000 ) ) ;
#793 = LINE ( 'NONE', #537, #237 ) ;
#794 = CARTESIAN_POINT ( 'NONE',  ( -41.50000000000021316, 100.0000000000000000, 48.50000000000001421 ) ) ;
#795 = ADVANCED_FACE ( 'NONE', ( #927 ), #386, .T. ) ;
#796 = ORIENTED_EDGE ( 'NONE', *, *, #696, .F. ) ;
#797 = EDGE_CURVE ( 'NONE', #724, #928, #945, .T. ) ;
#798 = ORIENTED_EDGE ( 'NONE', *, *, #1061, .F. ) ;
#799 = CARTESIAN_POINT ( 'NONE',  ( -48.99999999999997868, 0.000000000000000000, 48.99999999999999289 ) ) ;
#800 = EDGE_CURVE ( 'NONE', #308, #451, #648, .T. ) ;
#801 = FACE_OUTER_BOUND ( 'NONE', #352, .T. ) ;
#802 = ORIENTED_EDGE ( 'NONE', *, *, #582, .T. ) ;
#803 = EDGE_CURVE ( 'NONE', #1186, #821, #459, .T. ) ;
#804 = CARTESIAN_POINT ( 'NONE',  ( -35.00000000000001421, 20.00000000000000000, 35.00000000000000000 ) ) ;
#805 = ORIENTED_EDGE ( 'NONE', *, *, #978, .F. ) ;
#806 = PLANE ( 'NONE',  #664 ) ;
#807 = VECTOR ( 'NONE', #719, 1000.000000000000000 ) ;
#808 = APPROVAL_PERSON_ORGANIZATION ( #162, #781, #956 ) ;
#809 = CARTESIAN_POINT ( 'NONE',  ( -35.00000000000002842, 18.00000000000000355, -35.00000000000000000 ) ) ;
#810 = VERTEX_POINT ( 'NONE', #291 ) ;
#811 = DIRECTION ( 'NONE',  ( 0.000000000000000000, 0.000000000000000000, 1.000000000000000000 ) ) ;
#812 = VERTEX_POINT ( 'NONE', #172 ) ;
#813 = AXIS2_PLACEMENT_3D ( 'NONE', #789, #686, #562 ) ;
#814 = PLANE ( 'NONE',  #1060 ) ;
#815 = ORIENTED_EDGE ( 'NONE', *, *, #1017, .F. ) ;
#816 = LINE ( 'NONE', #1012, #807 ) ;
#817 = ORIENTED_EDGE ( 'NONE', *, *, #965, .F. ) ;
#818 = DIRECTION ( 'NONE',  ( 0.000000000000000000, 0.000000000000000000, -1.000000000000000000 ) ) ;
#819 = CARTESIAN_POINT ( 'NONE',  ( 0.000000000000000000, 100.0000000000000000, 0.000000000000000000 ) ) ;
#820 = PRODUCT_DEFINITION_SHAPE ( 'NONE', 'NONE',  #745 ) ;
#821 = VERTEX_POINT ( 'NONE', #737 ) ;
#822 = CARTESIAN_POINT ( 'NONE',  ( 34.99999999999997868, 18.00000000000000355, -33.40000000000002700 ) ) ;
#823 = ORIENTED_EDGE ( 'NONE', *, *, #652, .T. ) ;
#824 = DIRECTION ( 'NONE',  ( 0.000000000000000000, 0.000000000000000000, 1.000000000000000000 ) ) ;
#825 = VECTOR ( 'NONE', #463, 1000.000000000000000 ) ;
#826 = APPLICATION_PROTOCOL_DEFINITION ( 'international standard', 'config_control_design', 1994, #1131 ) ;
#827 = ORIENTED_EDGE ( 'NONE', *, *, #362, .T. ) ;
#828 = AXIS2_PLACEMENT_3D ( 'NONE', #951, #1208, #1219 ) ;
#829 = DIRECTION ( 'NONE',  ( 0.000000000000000000, 0.000000000000000000, 1.000000000000000000 ) ) ;
#830 = VERTEX_POINT ( 'NONE', #280 ) ;
#831 = PLANE ( 'NONE',  #898 ) ;
#832 = ORIENTED_EDGE ( 'NONE', *, *, #100, .F. ) ;
#833 = CARTESIAN_POINT ( 'NONE',  ( 0.000000000000000000, 0.000000000000000000, -41.50000000000022027 ) ) ;
#834 = EDGE_CURVE ( 'NONE', #904, #613, #1130, .T. ) ;
#835 = LINE ( 'NONE', #543, #595 ) ;
#836 = APPLICATION_PROTOCOL_DEFINITION ( 'international standard', 'config_control_design', 1994, #950 ) ;
#837 = AXIS2_PLACEMENT_3D ( 'NONE', #483, #1044, #201 ) ;
#838 = CARTESIAN_POINT ( 'NONE',  ( -35.00000000000002842, 20.00000000000000000, -36.60000000000000853 ) ) ;
#839 = ORIENTED_EDGE ( 'NONE', *, *, #847, .F. ) ;
#840 = CARTESIAN_POINT ( 'NONE',  ( -4.054654871560245028E-15, 100.0000000000000000, -48.49999999999999289 ) ) ;
#841 = ORIENTED_EDGE ( 'NONE', *, *, #93, .F. ) ;
#842 = EDGE_CURVE ( 'NONE', #188, #1116, #863, .T. ) ;
#843 = DIRECTION ( 'NONE',  ( 0.000000000000000000, -1.000000000000000000, 0.000000000000000000 ) ) ;
#844 = CALENDAR_DATE ( 2026, 8, 8 ) ;
#845 = CARTESIAN_POINT ( 'NONE',  ( 0.000000000000000000, 100.0000000000000000, -41.50000000000022027 ) ) ;
#846 = DIRECTION ( 'NONE',  ( -0.000000000000000000, -1.000000000000000000, -0.000000000000000000 ) ) ;
#847 = EDGE_CURVE ( 'NONE', #729, #92, #94, .T. ) ;
#848 = PLANE ( 'NONE',  #828 ) ;
#849 = VECTOR ( 'NONE', #254, 1000.000000000000000 ) ;
#850 = VECTOR ( 'NONE', #897, 1000.000000000000000 ) ;
#851 = CALENDAR_DATE ( 2026, 8, 8 ) ;
#852 = EDGE_LOOP ( 'NONE', ( #748, #1054, #356, #722 ) ) ;
#853 = DIRECTION ( 'NONE',  ( -0.000000000000000000, -1.000000000000000000, -0.000000000000000000 ) ) ;
#854 = CARTESIAN_POINT ( 'NONE',  ( -48.50000000000000000, 100.0000000000000000, -41.50000000000022027 ) ) ;
#855 = DIRECTION ( 'NONE',  ( -0.000000000000000000, 1.000000000000000000, 0.000000000000000000 ) ) ;
#856 = VECTOR ( 'NONE', #728, 1000.000000000000000 ) ;
#857 = CLOSED_SHELL ( 'NONE', ( #139, #611, #438, #617, #930, #1189, #878, #791, #707, #494, #795, #1010, #408, #314, #905, #277, #1175, #1122, #371, #1022, #1144, #542 ) ) ;
#858 = DIRECTION ( 'NONE',  ( -0.000000000000000000, 1.000000000000000000, 0.000000000000000000 ) ) ;
#859 = ORIENTED_EDGE ( 'NONE', *, *, #1061, .T. ) ;
#860 = DIRECTION ( 'NONE',  ( -0.000000000000000000, -1.000000000000000000, 0.000000000000000000 ) ) ;
#861 = DIRECTION ( 'NONE',  ( 0.000000000000000000, 0.000000000000000000, -1.000000000000000000 ) ) ;
#862 = ORIENTED_EDGE ( 'NONE', *, *, #1049, .F. ) ;
#863 = CIRCLE ( 'NONE', #921, 1.599999999999997202 ) ;
#864 = EDGE_LOOP ( 'NONE', ( #513, #715, #567, #669, #319, #63, #77, #1074 ) ) ;
#865 = VECTOR ( 'NONE', #717, 1000.000000000000000 ) ;
#866 = CARTESIAN_POINT ( 'NONE',  ( -35.00000000000001421, 18.00000000000000355, 35.00000000000000000 ) ) ;
#867 = PLANE ( 'NONE',  #813 ) ;
#868 = ORIENTED_EDGE ( 'NONE', *, *, #1094, .F. ) ;
#869 = CC_DESIGN_PERSON_AND_ORGANIZATION_ASSIGNMENT ( #1031, #1127, ( #51 ) ) ;
#870 = AXIS2_PLACEMENT_3D ( 'NONE', #173, #81, #275 ) ;
#871 = DIRECTION ( 'NONE',  ( 0.000000000000000000, 0.000000000000000000, -1.000000000000000000 ) ) ;
#872 = ORIENTED_EDGE ( 'NONE', *, *, #1197, .T. ) ;
#873 = EDGE_CURVE ( 'NONE', #515, #1027, #1111, .T. ) ;
#874 = VERTEX_POINT ( 'NONE', #286 ) ;
#875 = COORDINATED_UNIVERSAL_TIME_OFFSET ( 6, 0, .BEHIND. ) ;
#876 = CYLINDRICAL_SURFACE ( 'NONE', #450, 1.599999999999997202 ) ;
#877 = VERTEX_POINT ( 'NONE', #1107 ) ;
#878 = ADVANCED_FACE ( 'NONE', ( #273 ), #554, .T. ) ;
#879 = VECTOR ( 'NONE', #198, 1000.000000000000000 ) ;
#880 = DIRECTION ( 'NONE',  ( -0.000000000000000000, 1.000000000000000000, 0.000000000000000000 ) ) ;
#881 = EDGE_CURVE ( 'NONE', #1116, #265, #643, .T. ) ;
#882 = VECTOR ( 'NONE', #948, 1000.000000000000000 ) ;
#883 = DIRECTION ( 'NONE',  ( 1.000000000000000000, 0.000000000000000000, -0.000000000000000000 ) ) ;
#884 = VERTEX_POINT ( 'NONE', #73 ) ;
#885 = PERSON ( 'UNSPECIFIED', 'UNSPECIFIED', 'UNSPECIFIED', ('UNSPECIFIED'), ('UNSPECIFIED'), ('UNSPECIFIED') ) ;
#886 = ORIENTED_EDGE ( 'NONE', *, *, #310, .F. ) ;
#887 = EDGE_CURVE ( 'NONE', #1195, #11, #939, .T. ) ;
#888 = DIRECTION ( 'NONE',  ( -0.000000000000000000, 1.000000000000000000, 0.000000000000000000 ) ) ;
#889 = DIRECTION ( 'NONE',  ( 0.000000000000000000, 0.000000000000000000, 1.000000000000000000 ) ) ;
#890 = EDGE_LOOP ( 'NONE', ( #1157, #345, #1091, #1193 ) ) ;
#891 = LINE ( 'NONE', #1090, #128 ) ;
#892 = EDGE_LOOP ( 'NONE', ( #1053, #827, #412, #251 ) ) ;
#893 = CARTESIAN_POINT ( 'NONE',  ( 39.99999999999999289, 18.00000000000000355, 40.00000000000000000 ) ) ;
#894 = PLANE ( 'NONE',  #709 ) ;
#895 = ORIENTED_EDGE ( 'NONE', *, *, #263, .T. ) ;
#896 = DIRECTION ( 'NONE',  ( -1.000000000000000000, 0.000000000000000000, 8.163404592832240055E-16 ) ) ;
#897 = DIRECTION ( 'NONE',  ( -1.000000000000000000, 0.000000000000000000, 0.000000000000000000 ) ) ;
#898 = AXIS2_PLACEMENT_3D ( 'NONE', #845, #923, #457 ) ;
#899 = AXIS2_PLACEMENT_3D ( 'NONE', #866, #411, #403 ) ;
#900 = LOCAL_TIME ( 13, 19, 45.00000000000000000, #184 ) ;
#901 = FACE_OUTER_BOUND ( 'NONE', #852, .T. ) ;
#902 = ORIENTED_EDGE ( 'NONE', *, *, #965, .T. ) ;
#903 = DIRECTION ( 'NONE',  ( 0.000000000000000000, 0.000000000000000000, -1.000000000000000000 ) ) ;
#904 = VERTEX_POINT ( 'NONE', #1034 ) ;
#905 = ADVANCED_FACE ( 'NONE', ( #87 ), #848, .T. ) ;
#906 = CARTESIAN_POINT ( 'NONE',  ( 41.50000000000001421, 0.000000000000000000, -0.000000000000000000 ) ) ;
#907 = CARTESIAN_POINT ( 'NONE',  ( 41.50000000000022737, 100.0000000000000000, 48.50000000000001421 ) ) ;
#908 = DIRECTION ( 'NONE',  ( 0.000000000000000000, 0.000000000000000000, 1.000000000000000000 ) ) ;
#909 = CARTESIAN_POINT ( 'NONE',  ( 48.50000000000002842, 0.000000000000000000, 41.50000000000004263 ) ) ;
#910 = EDGE_LOOP ( 'NONE', ( #80, #3 ) ) ;
#911 = DIRECTION ( 'NONE',  ( 0.000000000000000000, -1.000000000000000000, 0.000000000000000000 ) ) ;
#912 = ORIENTED_EDGE ( 'NONE', *, *, #696, .T. ) ;
#913 = ADVANCED_FACE ( 'NONE', ( #758 ), #566, .F. ) ;
#914 = CARTESIAN_POINT ( 'NONE',  ( -48.99999999999997868, 0.000000000000000000, 49.99999999999999289 ) ) ;
#915 = DIRECTION ( 'NONE',  ( 0.000000000000000000, 1.000000000000000000, -0.000000000000000000 ) ) ;
#916 =( NAMED_UNIT ( * ) PLANE_ANGLE_UNIT ( ) SI_UNIT ( $, .RADIAN. ) );
#917 = VERTEX_POINT ( 'NONE', #118 ) ;
#918 = CARTESIAN_POINT ( 'NONE',  ( 41.50000000000022737, 100.0000000000000000, 41.50000000000004974 ) ) ;
#919 = VERTEX_POINT ( 'NONE', #203 ) ;
#920 = CARTESIAN_POINT ( 'NONE',  ( -35.00000000000001421, 18.00000000000000355, 35.00000000000000000 ) ) ;
#921 = AXIS2_PLACEMENT_3D ( 'NONE', #574, #853, #1039 ) ;
#922 = PERSON_AND_ORGANIZATION ( #885, #1117 ) ;
#923 = DIRECTION ( 'NONE',  ( 0.000000000000000000, 0.000000000000000000, -1.000000000000000000 ) ) ;
#924 = ORIENTED_EDGE ( 'NONE', *, *, #375, .T. ) ;
#925 =( GEOMETRIC_REPRESENTATION_CONTEXT ( 3 ) GLOBAL_UNCERTAINTY_ASSIGNED_CONTEXT ( ( #1222 ) ) GLOBAL_UNIT_ASSIGNED_CONTEXT ( ( #364, #916, #1018 ) ) REPRESENTATION_CONTEXT ( 'NONE', 'WORKASPACE' ) );
#926 = EDGE_CURVE ( 'NONE', #917, #417, #395, .T. ) ;
#927 = FACE_OUTER_BOUND ( 'NONE', #683, .T. ) ;
#928 = VERTEX_POINT ( 'NONE', #958 ) ;
#929 = DIRECTION ( 'NONE',  ( 0.000000000000000000, 0.000000000000000000, 1.000000000000000000 ) ) ;
#930 = ADVANCED_FACE ( 'NONE', ( #485 ), #108, .T. ) ;
#931 = EDGE_CURVE ( 'NONE', #594, #546, #778, .T. ) ;
#932 = CARTESIAN_POINT ( 'NONE',  ( -41.50000000000001421, 0.000000000000000000, 0.000000000000000000 ) ) ;
#933 = EDGE_LOOP ( 'NONE', ( #330, #955 ) ) ;
#934 = CARTESIAN_POINT ( 'NONE',  ( -41.50000000000001421, 100.0000000000000000, 0.000000000000000000 ) ) ;
#935 = VECTOR ( 'NONE', #1030, 1000.000000000000000 ) ;
#936 = PERSON_AND_ORGANIZATION_ROLE ( 'classification_officer' ) ;
#937 = CARTESIAN_POINT ( 'NONE',  ( -35.00000000000002842, 18.00000000000000355, -35.00000000000000000 ) ) ;
#938 = CARTESIAN_POINT ( 'NONE',  ( -48.50000000000000000, 100.0000000000000000, 41.49999999999997158 ) ) ;
#939 = LINE ( 'NONE', #833, #587 ) ;
#940 = EDGE_LOOP ( 'NONE', ( #693, #121, #1005, #770 ) ) ;
#941 = FACE_OUTER_BOUND ( 'NONE', #373, .T. ) ;
#942 = CARTESIAN_POINT ( 'NONE',  ( 0.000000000000000000, 0.000000000000000000, 0.000000000000000000 ) ) ;
#943 = DIRECTION ( 'NONE',  ( 0.000000000000000000, 1.000000000000000000, 0.000000000000000000 ) ) ;
#944 = EDGE_LOOP ( 'NONE', ( #990, #615, #24, #751 ) ) ;
#945 = LINE ( 'NONE', #765, #505 ) ;
#946 = VECTOR ( 'NONE', #710, 1000.000000000000000 ) ;
#947 = ORIENTED_EDGE ( 'NONE', *, *, #573, .T. ) ;
#948 = DIRECTION ( 'NONE',  ( -0.000000000000000000, -1.000000000000000000, -0.000000000000000000 ) ) ;
#949 = CARTESIAN_POINT ( 'NONE',  ( 49.00000000000002132, 100.0000000000000000, 49.99999999999999289 ) ) ;
#950 = APPLICATION_CONTEXT ( 'configuration controlled 3d designs of mechanical parts and assemblies' ) ;
#951 = CARTESIAN_POINT ( 'NONE',  ( -41.50000000000021316, 100.0000000000000000, 0.000000000000000000 ) ) ;
#952 = CARTESIAN_POINT ( 'NONE',  ( 34.99999999999997868, 20.00000000000000000, -36.60000000000003695 ) ) ;
#953 = LINE ( 'NONE', #572, #684 ) ;
#954 = DIRECTION ( 'NONE',  ( 8.163404592832240055E-16, -0.000000000000000000, 1.000000000000000000 ) ) ;
#955 = ORIENTED_EDGE ( 'NONE', *, *, #716, .F. ) ;
#956 = APPROVAL_ROLE ( '' ) ;
#957 = FACE_OUTER_BOUND ( 'NONE', #295, .T. ) ;
#958 = CARTESIAN_POINT ( 'NONE',  ( 41.50000000000022737, 100.0000000000000000, 48.50000000000001421 ) ) ;
#959 = EDGE_LOOP ( 'NONE', ( #61, #841, #718, #119 ) ) ;
#960 = EDGE_CURVE ( 'NONE', #546, #561, #105, .T. ) ;
#961 = CIRCLE ( 'NONE', #315, 1.600000000000004086 ) ;
#962 = VECTOR ( 'NONE', #559, 1000.000000000000000 ) ;
#963 = EDGE_LOOP ( 'NONE', ( #272, #186 ) ) ;
#964 = CC_DESIGN_APPROVAL ( #781, ( #980 ) ) ;
#965 = EDGE_CURVE ( 'NONE', #533, #613, #490, .T. ) ;
#966 = EDGE_CURVE ( 'NONE', #217, #546, #971, .T. ) ;
#967 = DIRECTION ( 'NONE',  ( 0.000000000000000000, 0.000000000000000000, 1.000000000000000000 ) ) ;
#968 = DIRECTION ( 'NONE',  ( 1.000000000000000000, 0.000000000000000000, -8.360113137237620037E-17 ) ) ;
#969 = VERTEX_POINT ( 'NONE', #1046 ) ;
#970 = ADVANCED_FACE ( 'NONE', ( #498 ), #876, .F. ) ;
#971 = LINE ( 'NONE', #323, #1172 ) ;
#972 = CYLINDRICAL_SURFACE ( 'NONE', #638, 1.599999999999997202 ) ;
#973 = ORIENTED_EDGE ( 'NONE', *, *, #225, .T. ) ;
#974 = ORIENTED_EDGE ( 'NONE', *, *, #282, .F. ) ;
#975 = LINE ( 'NONE', #479, #151 ) ;
#976 = CARTESIAN_POINT ( 'NONE',  ( -4.054654871560245028E-15, 0.000000000000000000, -48.49999999999999289 ) ) ;
#977 = ORIENTED_EDGE ( 'NONE', *, *, #225, .F. ) ;
#978 = EDGE_CURVE ( 'NONE', #416, #308, #398, .T. ) ;
#979 = AXIS2_PLACEMENT_3D ( 'NONE', #165, #540, #903 ) ;
#980 = SECURITY_CLASSIFICATION ( '', '', #556 ) ;
#981 = DIRECTION ( 'NONE',  ( 0.000000000000000000, -1.000000000000000000, 0.000000000000000000 ) ) ;
#982 = CARTESIAN_POINT ( 'NONE',  ( -48.99999999999997868, 100.0000000000000000, -49.00000000000000711 ) ) ;
#983 = ORIENTED_EDGE ( 'NONE', *, *, #444, .T. ) ;
#984 = DIRECTION ( 'NONE',  ( -0.000000000000000000, -1.000000000000000000, -0.000000000000000000 ) ) ;
#985 = ORIENTED_EDGE ( 'NONE', *, *, #576, .T. ) ;
#986 = CARTESIAN_POINT ( 'NONE',  ( -48.99999999999997868, 0.000000000000000000, 49.99999999999999289 ) ) ;
#987 = LINE ( 'NONE', #604, #452 ) ;
#988 = ORIENTED_EDGE ( 'NONE', *, *, #362, .F. ) ;
#989 = DIRECTION ( 'NONE',  ( 0.000000000000000000, -1.000000000000000000, 0.000000000000000000 ) ) ;
#990 = ORIENTED_EDGE ( 'NONE', *, *, #79, .T. ) ;
#991 = DIRECTION ( 'NONE',  ( -0.000000000000000000, -1.000000000000000000, -0.000000000000000000 ) ) ;
#992 = VECTOR ( 'NONE', #14, 1000.000000000000000 ) ;
#993 = CARTESIAN_POINT ( 'NONE',  ( -41.50000000000021316, 0.000000000000000000, 48.50000000000001421 ) ) ;
#994 = ORIENTED_EDGE ( 'NONE', *, *, #525, .F. ) ;
#995 = CC_DESIGN_PERSON_AND_ORGANIZATION_ASSIGNMENT ( #1210, #747, ( #1177 ) ) ;
#996 = DIRECTION ( 'NONE',  ( -0.000000000000000000, 1.000000000000000000, 0.000000000000000000 ) ) ;
#997 = ORIENTED_EDGE ( 'NONE', *, *, #960, .F. ) ;
#998 = DIRECTION ( 'NONE',  ( -0.000000000000000000, -1.000000000000000000, -0.000000000000000000 ) ) ;
#999 = AXIS2_PLACEMENT_3D ( 'NONE', #132, #440, #155 ) ;
#1000 = LINE ( 'NONE', #433, #849 ) ;
#1001 = EDGE_CURVE ( 'NONE', #780, #267, #1134, .T. ) ;
#1002 = DIRECTION ( 'NONE',  ( 0.000000000000000000, 0.000000000000000000, -1.000000000000000000 ) ) ;
#1003 = EDGE_LOOP ( 'NONE', ( #424, #872, #150, #358, #1097, #1152, #608, #553, #627, #502, #1169, #223 ) ) ;
#1004 = DIRECTION ( 'NONE',  ( 0.000000000000000000, 0.000000000000000000, 1.000000000000000000 ) ) ;
#1005 = ORIENTED_EDGE ( 'NONE', *, *, #183, .F. ) ;
#1006 = FACE_BOUND ( 'NONE', #910, .T. ) ;
#1007 = VECTOR ( 'NONE', #1002, 1000.000000000000000 ) ;
#1008 = DATE_TIME_ROLE ( 'classification_date' ) ;
#1009 = DIRECTION ( 'NONE',  ( 8.360113137237620037E-17, 0.000000000000000000, 1.000000000000000000 ) ) ;
#1010 = ADVANCED_FACE ( 'NONE', ( #27 ), #1066, .F. ) ;
#1011 = EDGE_LOOP ( 'NONE', ( #902, #630 ) ) ;
#1012 = CARTESIAN_POINT ( 'NONE',  ( -35.00000000000002842, 18.00000000000000355, -36.60000000000000853 ) ) ;
#1013 = ORIENTED_EDGE ( 'NONE', *, *, #716, .T. ) ;
#1014 = FACE_BOUND ( 'NONE', #1081, .T. ) ;
#1015 = EDGE_CURVE ( 'NONE', #1116, #188, #381, .T. ) ;
#1016 = AXIS2_PLACEMENT_3D ( 'NONE', #264, #1185, #255 ) ;
#1017 = EDGE_CURVE ( 'NONE', #917, #732, #226, .T. ) ;
#1018 =( NAMED_UNIT ( * ) SI_UNIT ( $, .STERADIAN. ) SOLID_ANGLE_UNIT ( ) );
#1019 = LINE ( 'NONE', #545, #482 ) ;
#1020 = ORIENTED_EDGE ( 'NONE', *, *, #665, .F. ) ;
#1021 = DIRECTION ( 'NONE',  ( 0.000000000000000000, -0.000000000000000000, 1.000000000000000000 ) ) ;
#1022 = ADVANCED_FACE ( 'NONE', ( #501 ), #592, .T. ) ;
#1023 = CARTESIAN_POINT ( 'NONE',  ( -35.00000000000001421, 20.00000000000000000, 33.40000000000000568 ) ) ;
#1024 = EDGE_CURVE ( 'NONE', #53, #1047, #406, .T. ) ;
#1025 = VECTOR ( 'NONE', #1146, 1000.000000000000000 ) ;
#1026 = PERSON_AND_ORGANIZATION ( #885, #1117 ) ;
#1027 = VERTEX_POINT ( 'NONE', #1150 ) ;
#1028 = APPROVAL_PERSON_ORGANIZATION ( #922, #560, #739 ) ;
#1029 = CARTESIAN_POINT ( 'NONE',  ( 48.50000000000002842, 100.0000000000000000, 0.000000000000000000 ) ) ;
#1030 = DIRECTION ( 'NONE',  ( 0.000000000000000000, 0.000000000000000000, 1.000000000000000000 ) ) ;
#1031 = PERSON_AND_ORGANIZATION ( #885, #1117 ) ;
#1032 = CARTESIAN_POINT ( 'NONE',  ( 35.00000000000000000, 18.00000000000000355, 36.60000000000000142 ) ) ;
#1033 = ORIENTED_EDGE ( 'NONE', *, *, #1221, .F. ) ;
#1034 = CARTESIAN_POINT ( 'NONE',  ( 34.99999999999997868, 18.00000000000000355, -36.60000000000003695 ) ) ;
#1035 = VECTOR ( 'NONE', #843, 1000.000000000000000 ) ;
#1036 = PERSON_AND_ORGANIZATION ( #885, #1117 ) ;
#1037 = DIRECTION ( 'NONE',  ( -0.000000000000000000, -1.000000000000000000, -0.000000000000000000 ) ) ;
#1038 = LINE ( 'NONE', #397, #392 ) ;
#1039 = DIRECTION ( 'NONE',  ( 0.000000000000000000, 0.000000000000000000, 1.000000000000000000 ) ) ;
#1040 = EDGE_CURVE ( 'NONE', #884, #458, #317, .T. ) ;
#1041 = CARTESIAN_POINT ( 'NONE',  ( 39.99999999999999289, 20.00000000000000000, -40.00000000000000000 ) ) ;
#1042 = CARTESIAN_POINT ( 'NONE',  ( 3.387812906025373780E-14, 0.000000000000000000, 41.49999999999993605 ) ) ;
#1043 = VECTOR ( 'NONE', #614, 1000.000000000000000 ) ;
#1044 = DIRECTION ( 'NONE',  ( -0.000000000000000000, -1.000000000000000000, 0.000000000000000000 ) ) ;
#1045 = PLANE ( 'NONE',  #383 ) ;
#1046 = CARTESIAN_POINT ( 'NONE',  ( 50.00000000000002132, 0.000000000000000000, 48.99999999999999289 ) ) ;
#1047 = VERTEX_POINT ( 'NONE', #221 ) ;
#1048 = VERTEX_POINT ( 'NONE', #597 ) ;
#1049 = EDGE_CURVE ( 'NONE', #487, #780, #975, .T. ) ;
#1050 = DIRECTION ( 'NONE',  ( -1.000000000000000000, 0.000000000000000000, -0.000000000000000000 ) ) ;
#1051 = DIRECTION ( 'NONE',  ( 1.000000000000000000, 0.000000000000000000, -8.360113137237620037E-17 ) ) ;
#1052 = FACE_OUTER_BOUND ( 'NONE', #129, .T. ) ;
#1053 = ORIENTED_EDGE ( 'NONE', *, *, #581, .F. ) ;
#1054 = ORIENTED_EDGE ( 'NONE', *, *, #491, .F. ) ;
#1055 = VECTOR ( 'NONE', #981, 1000.000000000000000 ) ;
#1056 = EDGE_CURVE ( 'NONE', #1048, #19, #1000, .T. ) ;
#1057 = SHAPE_DEFINITION_REPRESENTATION ( #820, #167 ) ;
#1058 = DIRECTION ( 'NONE',  ( 0.000000000000000000, 0.000000000000000000, -1.000000000000000000 ) ) ;
#1059 = ORIENTED_EDGE ( 'NONE', *, *, #800, .F. ) ;
#1060 = AXIS2_PLACEMENT_3D ( 'NONE', #531, #1070, #908 ) ;
#1061 = EDGE_CURVE ( 'NONE', #267, #780, #316, .T. ) ;
#1062 = AXIS2_PLACEMENT_3D ( 'NONE', #467, #915, #461 ) ;
#1063 = CARTESIAN_POINT ( 'NONE',  ( 0.000000000000000000, 100.0000000000000000, -50.00000000000000711 ) ) ;
#1064 = LINE ( 'NONE', #125, #400 ) ;
#1065 = VECTOR ( 'NONE', #1009, 1000.000000000000000 ) ;
#1066 = PLANE ( 'NONE',  #50 ) ;
#1067 = EDGE_LOOP ( 'NONE', ( #832, #1161, #378, #49 ) ) ;
#1068 = ORIENTED_EDGE ( 'NONE', *, *, #9, .T. ) ;
#1069 = CARTESIAN_POINT ( 'NONE',  ( 39.99999999999999289, 18.00000000000000355, 40.00000000000000000 ) ) ;
#1070 = DIRECTION ( 'NONE',  ( 0.000000000000000000, 1.000000000000000000, -0.000000000000000000 ) ) ;
#1071 = LINE ( 'NONE', #626, #1007 ) ;
#1072 = ORIENTED_EDGE ( 'NONE', *, *, #881, .T. ) ;
#1073 = CARTESIAN_POINT ( 'NONE',  ( -35.00000000000002842, 20.00000000000000000, -35.00000000000000000 ) ) ;
#1074 = ORIENTED_EDGE ( 'NONE', *, *, #1221, .T. ) ;
#1075 = AXIS2_PLACEMENT_3D ( 'NONE', #1187, #989, #158 ) ;
#1076 = AXIS2_PLACEMENT_3D ( 'NONE', #809, #341, #328 ) ;
#1077 = LINE ( 'NONE', #949, #101 ) ;
#1078 = CARTESIAN_POINT ( 'NONE',  ( 34.99999999999997868, 20.00000000000000000, -35.00000000000002842 ) ) ;
#1079 = ORIENTED_EDGE ( 'NONE', *, *, #1126, .T. ) ;
#1080 = CARTESIAN_POINT ( 'NONE',  ( 3.387812906025373780E-14, 100.0000000000000000, 41.49999999999993605 ) ) ;
#1081 = EDGE_LOOP ( 'NONE', ( #790, #912 ) ) ;
#1082 = EDGE_CURVE ( 'NONE', #810, #1207, #1096, .T. ) ;
#1083 = CARTESIAN_POINT ( 'NONE',  ( 49.00000000000002132, 100.0000000000000000, 49.99999999999999289 ) ) ;
#1084 = ORIENTED_EDGE ( 'NONE', *, *, #576, .F. ) ;
#1085 = CARTESIAN_POINT ( 'NONE',  ( 39.99999999999999289, 18.00000000000000355, -40.00000000000000000 ) ) ;
#1086 = ORIENTED_EDGE ( 'NONE', *, *, #926, .T. ) ;
#1087 = EDGE_CURVE ( 'NONE', #884, #287, #1153, .T. ) ;
#1088 = DIRECTION ( 'NONE',  ( 0.000000000000000000, -0.000000000000000000, 1.000000000000000000 ) ) ;
#1089 = ORIENTED_EDGE ( 'NONE', *, *, #754, .T. ) ;
#1090 = CARTESIAN_POINT ( 'NONE',  ( -49.99999999999997868, 0.000000000000000000, -0.000000000000000000 ) ) ;
#1091 = ORIENTED_EDGE ( 'NONE', *, *, #488, .T. ) ;
#1092 = DIRECTION ( 'NONE',  ( 0.000000000000000000, 0.000000000000000000, 1.000000000000000000 ) ) ;
#1093 = AXIS2_PLACEMENT_3D ( 'NONE', #1080, #635, #896 ) ;
#1094 = EDGE_CURVE ( 'NONE', #67, #622, #232, .T. ) ;
#1095 = AXIS2_PLACEMENT_3D ( 'NONE', #1135, #23, #208 ) ;
#1096 = LINE ( 'NONE', #511, #470 ) ;
#1097 = ORIENTED_EDGE ( 'NONE', *, *, #16, .F. ) ;
#1098 = CARTESIAN_POINT ( 'NONE',  ( 49.00000000000002132, 100.0000000000000000, -49.00000000000000711 ) ) ;
#1099 = EDGE_CURVE ( 'NONE', #147, #416, #987, .T. ) ;
#1100 = ORIENTED_EDGE ( 'NONE', *, *, #797, .F. ) ;
#1101 = PLANE ( 'NONE',  #347 ) ;
#1102 = DIRECTION ( 'NONE',  ( 0.000000000000000000, 0.000000000000000000, 1.000000000000000000 ) ) ;
#1103 = EDGE_CURVE ( 'NONE', #613, #533, #1173, .T. ) ;
#1104 = PERSON_AND_ORGANIZATION ( #885, #1117 ) ;
#1105 = CARTESIAN_POINT ( 'NONE',  ( 49.00000000000002132, 100.0000000000000000, -49.00000000000000711 ) ) ;
#1106 = ORIENTED_EDGE ( 'NONE', *, *, #454, .F. ) ;
#1107 = CARTESIAN_POINT ( 'NONE',  ( 41.50000000000001421, 100.0000000000000000, -41.50000000000022027 ) ) ;
#1108 = LINE ( 'NONE', #160, #59 ) ;
#1109 = DIRECTION ( 'NONE',  ( -0.000000000000000000, 1.000000000000000000, 0.000000000000000000 ) ) ;
#1110 = ORIENTED_EDGE ( 'NONE', *, *, #766, .F. ) ;
#1111 = LINE ( 'NONE', #179, #359 ) ;
#1112 = ORIENTED_EDGE ( 'NONE', *, *, #197, .T. ) ;
#1113 = CIRCLE ( 'NONE', #15, 1.000000000000000888 ) ;
#1114 = APPROVAL_STATUS ( 'not_yet_approved' ) ;
#1115 = DIRECTION ( 'NONE',  ( -0.000000000000000000, -0.000000000000000000, 1.000000000000000000 ) ) ;
#1116 = VERTEX_POINT ( 'NONE', #518 ) ;
#1117 = ORGANIZATION ( 'UNSPECIFIED', 'UNSPECIFIED', '' ) ;
#1118 = CARTESIAN_POINT ( 'NONE',  ( 0.000000000000000000, 18.00000000000000355, 0.000000000000000000 ) ) ;
#1119 = ORIENTED_EDGE ( 'NONE', *, *, #41, .T. ) ;
#1120 = LINE ( 'NONE', #644, #659 ) ;
#1121 = VECTOR ( 'NONE', #968, 1000.000000000000000 ) ;
#1122 = ADVANCED_FACE ( 'NONE', ( #355, #801 ), #814, .F. ) ;
#1123 = LINE ( 'NONE', #661, #149 ) ;
#1124 = CARTESIAN_POINT ( 'NONE',  ( 48.50000000000002842, 0.000000000000000000, -41.50000000000022027 ) ) ;
#1125 = CARTESIAN_POINT ( 'NONE',  ( 4.054654871560246605E-15, 0.000000000000000000, 48.50000000000001421 ) ) ;
#1126 = EDGE_CURVE ( 'NONE', #561, #115, #1160, .T. ) ;
#1127 = PERSON_AND_ORGANIZATION_ROLE ( 'design_supplier' ) ;
#1128 = LINE ( 'NONE', #195, #199 ) ;
#1129 = ORIENTED_EDGE ( 'NONE', *, *, #1082, .T. ) ;
#1130 = LINE ( 'NONE', #78, #825 ) ;
#1131 = APPLICATION_CONTEXT ( 'configuration controlled 3d designs of mechanical parts and assemblies' ) ;
#1132 = DIRECTION ( 'NONE',  ( 0.000000000000000000, 0.000000000000000000, 1.000000000000000000 ) ) ;
#1133 = DIRECTION ( 'NONE',  ( -1.000000000000000000, 0.000000000000000000, 8.163404592832239069E-16 ) ) ;
#1134 = CIRCLE ( 'NONE', #602, 1.599999999999997202 ) ;
#1135 = CARTESIAN_POINT ( 'NONE',  ( 34.99999999999997868, 20.00000000000000000, -35.00000000000002842 ) ) ;
#1136 = CIRCLE ( 'NONE', #650, 1.000000000000000888 ) ;
#1137 = ORIENTED_EDGE ( 'NONE', *, *, #93, .T. ) ;
#1138 = ADVANCED_FACE ( 'NONE', ( #37 ), #894, .F. ) ;
#1139 = CARTESIAN_POINT ( 'NONE',  ( 34.99999999999997868, 18.00000000000000355, -35.00000000000002842 ) ) ;
#1140 = EDGE_CURVE ( 'NONE', #409, #1158, #702, .T. ) ;
#1141 = CARTESIAN_POINT ( 'NONE',  ( 48.50000000000002842, 100.0000000000000000, 0.000000000000000000 ) ) ;
#1142 = DIRECTION ( 'NONE',  ( 0.000000000000000000, 0.000000000000000000, 1.000000000000000000 ) ) ;
#1143 = ORIENTED_EDGE ( 'NONE', *, *, #324, .F. ) ;
#1144 = ADVANCED_FACE ( 'NONE', ( #1176 ), #727, .T. ) ;
#1145 = AXIS2_PLACEMENT_3D ( 'NONE', #393, #767, #1132 ) ;
#1146 = DIRECTION ( 'NONE',  ( -0.000000000000000000, 1.000000000000000000, 0.000000000000000000 ) ) ;
#1147 = LINE ( 'NONE', #976, #1121 ) ;
#1148 = ORIENTED_EDGE ( 'NONE', *, *, #1015, .F. ) ;
#1149 = EDGE_LOOP ( 'NONE', ( #259, #839, #210, #994 ) ) ;
#1150 = CARTESIAN_POINT ( 'NONE',  ( -49.99999999999997868, 100.0000000000000000, 48.99999999999999289 ) ) ;
#1151 = CYLINDRICAL_SURFACE ( 'NONE', #242, 1.000000000000000888 ) ;
#1152 = ORIENTED_EDGE ( 'NONE', *, *, #310, .T. ) ;
#1153 = CIRCLE ( 'NONE', #260, 1.000000000000000888 ) ;
#1154 = DATE_AND_TIME ( #304, #283 ) ;
#1155 = CARTESIAN_POINT ( 'NONE',  ( -40.00000000000000711, 18.00000000000000355, 40.00000000000000000 ) ) ;
#1156 = DIRECTION ( 'NONE',  ( -0.000000000000000000, 1.000000000000000000, 0.000000000000000000 ) ) ;
#1157 = ORIENTED_EDGE ( 'NONE', *, *, #322, .T. ) ;
#1158 = VERTEX_POINT ( 'NONE', #1083 ) ;
#1159 = DIRECTION ( 'NONE',  ( 1.000000000000000000, -0.000000000000000000, 0.000000000000000000 ) ) ;
#1160 = LINE ( 'NONE', #633, #865 ) ;
#1161 = ORIENTED_EDGE ( 'NONE', *, *, #86, .T. ) ;
#1162 = CIRCLE ( 'NONE', #640, 1.599999999999997202 ) ;
#1163 = CARTESIAN_POINT ( 'NONE',  ( 35.00000000000000000, 20.00000000000000000, 33.40000000000000568 ) ) ;
#1164 = EDGE_LOOP ( 'NONE', ( #441, #1188, #325, #343 ) ) ;
#1165 = VECTOR ( 'NONE', #1159, 1000.000000000000000 ) ;
#1166 = DIRECTION ( 'NONE',  ( 0.000000000000000000, 0.000000000000000000, 1.000000000000000000 ) ) ;
#1167 = DIRECTION ( 'NONE',  ( 1.000000000000000000, -0.000000000000000000, 0.000000000000000000 ) ) ;
#1168 = FACE_OUTER_BOUND ( 'NONE', #944, .T. ) ;
#1169 = ORIENTED_EDGE ( 'NONE', *, *, #1099, .T. ) ;
#1170 = FACE_BOUND ( 'NONE', #55, .T. ) ;
#1171 = ORIENTED_EDGE ( 'NONE', *, *, #402, .T. ) ;
#1172 = VECTOR ( 'NONE', #17, 1000.000000000000000 ) ;
#1173 = CIRCLE ( 'NONE', #18, 1.600000000000004086 ) ;
#1174 = CARTESIAN_POINT ( 'NONE',  ( -49.99999999999997868, 100.0000000000000000, -49.00000000000000711 ) ) ;
#1175 = ADVANCED_FACE ( 'NONE', ( #334, #426 ), #625, .T. ) ;
#1176 = FACE_OUTER_BOUND ( 'NONE', #321, .T. ) ;
#1177 = PRODUCT ( 'CUBESATPROJECT', 'CUBESATPROJECT', '', ( #91 ) ) ;
#1179 = ORIENTED_EDGE ( 'NONE', *, *, #1001, .T. ) ;
#1178 = AXIS2_PLACEMENT_3D ( 'NONE', #227, #1156, #215 ) ;
#1180 = DIRECTION ( 'NONE',  ( 0.000000000000000000, 0.000000000000000000, 1.000000000000000000 ) ) ;
#1181 = ORIENTED_EDGE ( 'NONE', *, *, #670, .F. ) ;
#1182 = ADVANCED_FACE ( 'NONE', ( #506 ), #1184, .F. ) ;
#1183 = LINE ( 'NONE', #907, #320 ) ;
#1184 = CYLINDRICAL_SURFACE ( 'NONE', #1076, 1.600000000000004086 ) ;
#1185 = DIRECTION ( 'NONE',  ( -0.000000000000000000, -1.000000000000000000, -0.000000000000000000 ) ) ;
#1186 = VERTEX_POINT ( 'NONE', #993 ) ;
#1187 = CARTESIAN_POINT ( 'NONE',  ( 35.00000000000000000, 18.00000000000000355, 35.00000000000000000 ) ) ;
#1188 = ORIENTED_EDGE ( 'NONE', *, *, #652, .F. ) ;
#1189 = ADVANCED_FACE ( 'NONE', ( #901 ), #52, .T. ) ;
#1190 = LINE ( 'NONE', #744, #616 ) ;
#1191 = DIRECTION ( 'NONE',  ( 0.000000000000000000, 0.000000000000000000, -1.000000000000000000 ) ) ;
#1192 = CARTESIAN_POINT ( 'NONE',  ( 41.50000000000022737, 100.0000000000000000, 0.000000000000000000 ) ) ;
#1193 = ORIENTED_EDGE ( 'NONE', *, *, #127, .T. ) ;
#1194 = DIRECTION ( 'NONE',  ( 0.000000000000000000, 1.000000000000000000, -0.000000000000000000 ) ) ;
#1195 = VERTEX_POINT ( 'NONE', #415 ) ;
#1196 = CYLINDRICAL_SURFACE ( 'NONE', #588, 1.599999999999997202 ) ;
#1197 = EDGE_CURVE ( 'NONE', #451, #1186, #793, .T. ) ;
#1198 = VECTOR ( 'NONE', #1180, 1000.000000000000000 ) ;
#1199 = PERSON_AND_ORGANIZATION ( #885, #1117 ) ;
#1200 = CARTESIAN_POINT ( 'NONE',  ( -48.99999999999997868, 100.0000000000000000, 49.99999999999999289 ) ) ;
#1201 = ORIENTED_EDGE ( 'NONE', *, *, #926, .F. ) ;
#1202 = DIRECTION ( 'NONE',  ( 1.000000000000000000, 0.000000000000000000, -8.163404592832239069E-16 ) ) ;
#1203 = DIRECTION ( 'NONE',  ( -0.000000000000000000, 1.000000000000000000, 0.000000000000000000 ) ) ;
#1204 = LINE ( 'NONE', #370, #850 ) ;
#1205 = COORDINATED_UNIVERSAL_TIME_OFFSET ( 6, 0, .BEHIND. ) ;
#1206 = CARTESIAN_POINT ( 'NONE',  ( -49.99999999999997868, 0.000000000000000000, 48.99999999999999289 ) ) ;
#1207 = VERTEX_POINT ( 'NONE', #735 ) ;
#1208 = DIRECTION ( 'NONE',  ( 1.000000000000000000, 0.000000000000000000, 0.000000000000000000 ) ) ;
#1209 = DIRECTION ( 'NONE',  ( 0.000000000000000000, 0.000000000000000000, 1.000000000000000000 ) ) ;
#1210 = PERSON_AND_ORGANIZATION ( #885, #1117 ) ;
#1211 = VECTOR ( 'NONE', #679, 1000.000000000000000 ) ;
#1212 = EDGE_LOOP ( 'NONE', ( #868, #1106, #279, #385, #526, #1068, #529, #815, #144, #777, #541, #1181 ) ) ;
#1213 = DIRECTION ( 'NONE',  ( -0.000000000000000000, 1.000000000000000000, -0.000000000000000000 ) ) ;
#1214 = CC_DESIGN_DATE_AND_TIME_ASSIGNMENT ( #293, #1008, ( #980 ) ) ;
#1215 = VECTOR ( 'NONE', #10, 1000.000000000000000 ) ;
#1216 = COORDINATED_UNIVERSAL_TIME_OFFSET ( 6, 0, .BEHIND. ) ;
#1217 = LINE ( 'NONE', #756, #481 ) ;
#1218 = AXIS2_PLACEMENT_3D ( 'NONE', #612, #146, #58 ) ;
#1219 = DIRECTION ( 'NONE',  ( 0.000000000000000000, 0.000000000000000000, -1.000000000000000000 ) ) ;
#1220 = AXIS2_PLACEMENT_3D ( 'NONE', #340, #726, #346 ) ;
#1221 = EDGE_CURVE ( 'NONE', #1027, #409, #1136, .T. ) ;
#1222 = UNCERTAINTY_MEASURE_WITH_UNIT (LENGTH_MEASURE( 1.000000000000000082E-05 ), #364, 'distance_accuracy_value', 'NONE');
#1223 = CIRCLE ( 'NONE', #387, 1.000000000000000888 ) ;
ENDSEC;
END-ISO-10303-21;
